<svg width="355" height="190" viewBox="0 0 355 190" fill="none" xmlns="http://www.w3.org/2000/svg">
<g filter="url(#filter0_d_6_1095)">
<rect x="10" y="6" width="335" height="164" rx="16" fill="#D9D9D9"/>
</g>
<circle opacity="0.15" cx="146" cy="186" r="4" fill="#3C3C3C"/>
<circle opacity="0.15" cx="162" cy="186" r="4" fill="#3C3C3C"/>
<circle cx="178" cy="186" r="4" fill="#3C3C3C"/>
<circle opacity="0.15" cx="194" cy="186" r="4" fill="#3C3C3C"/>
<circle opacity="0.15" cx="210" cy="186" r="4" fill="#3C3C3C"/>
<rect x="10" y="6" width="335" height="164" rx="16" fill="url(#paint0_linear_6_1095)"/>
<mask id="mask0_6_1095" style="mask-type:alpha" maskUnits="userSpaceOnUse" x="10" y="6" width="335" height="164">
<rect x="10" y="6" width="335" height="164" rx="16" fill="#FBA932"/>
</mask>
<g mask="url(#mask0_6_1095)">
<circle cx="44" cy="90" r="96" fill="white"/>
<path d="M174.268 14.3777C174.214 13.4105 175.429 12.9391 176.041 13.6898L179.102 17.4424C179.376 17.7781 179.835 17.8993 180.239 17.7426L184.754 15.991C185.657 15.6406 186.481 16.6507 185.956 17.465L183.333 21.5359C183.098 21.9 183.125 22.3739 183.399 22.7096L186.46 26.4623C187.072 27.2129 186.366 28.3086 185.43 28.0612L180.747 26.8245C180.328 26.7139 179.886 26.8855 179.651 27.2497L177.028 31.3206C176.504 32.1349 175.243 31.8021 175.189 30.8348L174.919 25.9996C174.894 25.5671 174.594 25.1993 174.175 25.0887L169.493 23.8519C168.557 23.6045 168.484 22.3032 169.387 21.9528L173.902 20.2012C174.306 20.0445 174.563 19.6455 174.539 19.213L174.268 14.3777Z" fill="white" fill-opacity="0.5"/>
<path d="M125.255 163.011L124.262 152.095L135.096 158.182L125.255 163.011Z" fill="white" fill-opacity="0.5"/>
<circle cx="320.5" cy="24.5" r="5" stroke="white" stroke-opacity="0.5"/>
</g>
<path d="M157.877 77.253C156.129 77.253 154.634 76.908 153.392 76.218C152.15 75.528 151.191 74.562 150.517 73.32C149.857 72.0627 149.528 70.583 149.528 68.881C149.528 67.6083 149.712 66.466 150.08 65.454C150.463 64.4267 151.015 63.5527 151.736 62.832C152.456 62.096 153.33 61.5287 154.358 61.13C155.4 60.7313 156.573 60.532 157.877 60.532C158.643 60.532 159.418 60.6317 160.2 60.831C160.997 61.015 161.687 61.2833 162.27 61.636C162.653 61.8507 162.914 62.119 163.052 62.441C163.19 62.763 163.228 63.085 163.167 63.407C163.121 63.729 162.99 64.005 162.776 64.235C162.576 64.465 162.323 64.6107 162.017 64.672C161.71 64.7333 161.365 64.6643 160.982 64.465C160.522 64.189 160.039 63.9897 159.533 63.867C159.027 63.7443 158.513 63.683 157.992 63.683C156.964 63.683 156.098 63.89 155.393 64.304C154.703 64.7027 154.181 65.2853 153.829 66.052C153.476 66.8187 153.3 67.7617 153.3 68.881C153.3 69.985 153.476 70.928 153.829 71.71C154.181 72.492 154.703 73.09 155.393 73.504C156.098 73.9027 156.964 74.102 157.992 74.102C158.482 74.102 158.981 74.0407 159.487 73.918C160.008 73.7953 160.506 73.6037 160.982 73.343C161.38 73.1437 161.733 73.0747 162.04 73.136C162.362 73.182 162.622 73.32 162.822 73.55C163.036 73.7647 163.167 74.0253 163.213 74.332C163.274 74.6387 163.243 74.9453 163.121 75.252C162.998 75.5587 162.768 75.8193 162.431 76.034C161.863 76.4173 161.166 76.7163 160.338 76.931C159.51 77.1457 158.689 77.253 157.877 77.253ZM169.286 77.253C168.458 77.253 167.714 77.092 167.055 76.77C166.395 76.448 165.882 76.011 165.514 75.459C165.146 74.907 164.962 74.286 164.962 73.596C164.962 72.768 165.176 72.1163 165.606 71.641C166.035 71.1503 166.733 70.8053 167.699 70.606C168.665 70.3913 169.945 70.284 171.54 70.284H172.759V72.078H171.563C170.781 72.078 170.144 72.124 169.654 72.216C169.178 72.2927 168.833 72.4307 168.619 72.63C168.419 72.8293 168.32 73.1053 168.32 73.458C168.32 73.8873 168.465 74.24 168.757 74.516C169.063 74.792 169.5 74.93 170.068 74.93C170.512 74.93 170.903 74.8303 171.241 74.631C171.593 74.4163 171.869 74.1327 172.069 73.78C172.268 73.412 172.368 72.998 172.368 72.538V69.893C172.368 69.2183 172.214 68.743 171.908 68.467C171.601 68.1757 171.08 68.03 170.344 68.03C169.93 68.03 169.477 68.0837 168.987 68.191C168.511 68.283 167.982 68.444 167.4 68.674C167.062 68.8273 166.763 68.8657 166.503 68.789C166.242 68.697 166.043 68.5437 165.905 68.329C165.767 68.099 165.698 67.8537 165.698 67.593C165.698 67.317 165.774 67.0563 165.928 66.811C166.081 66.5503 166.334 66.3587 166.687 66.236C167.407 65.9447 168.082 65.7453 168.711 65.638C169.355 65.5307 169.945 65.477 170.482 65.477C171.662 65.477 172.628 65.6533 173.38 66.006C174.146 66.3433 174.721 66.8723 175.105 67.593C175.488 68.2983 175.68 69.2107 175.68 70.33V75.436C175.68 76.0033 175.542 76.4403 175.266 76.747C174.99 77.0537 174.591 77.207 174.07 77.207C173.548 77.207 173.142 77.0537 172.851 76.747C172.575 76.4403 172.437 76.0033 172.437 75.436V74.585L172.598 74.723C172.506 75.2443 172.306 75.6967 172 76.08C171.708 76.448 171.333 76.7393 170.873 76.954C170.413 77.1533 169.884 77.253 169.286 77.253ZM180.524 77.207C179.942 77.207 179.497 77.0537 179.19 76.747C178.884 76.4403 178.73 76.0033 178.73 75.436V67.271C178.73 66.7037 178.876 66.2743 179.167 65.983C179.474 65.6763 179.896 65.523 180.432 65.523C180.984 65.523 181.406 65.6763 181.697 65.983C181.989 66.2743 182.134 66.7037 182.134 67.271V68.467H181.904C182.088 67.547 182.495 66.834 183.123 66.328C183.752 65.822 184.565 65.5383 185.561 65.477C185.945 65.4463 186.236 65.546 186.435 65.776C186.65 65.9907 186.765 66.351 186.78 66.857C186.811 67.3323 186.711 67.708 186.481 67.984C186.267 68.26 185.899 68.4287 185.377 68.49L184.848 68.536C183.974 68.6127 183.323 68.8657 182.893 69.295C182.479 69.7243 182.272 70.3453 182.272 71.158V75.436C182.272 76.0033 182.119 76.4403 181.812 76.747C181.521 77.0537 181.092 77.207 180.524 77.207ZM193.895 81.393C193.067 81.393 192.269 81.324 191.503 81.186C190.751 81.048 190.084 80.841 189.502 80.565C189.149 80.4117 188.896 80.2123 188.743 79.967C188.605 79.7217 188.543 79.461 188.559 79.185C188.589 78.909 188.681 78.6637 188.835 78.449C189.003 78.2343 189.21 78.081 189.456 77.989C189.701 77.9123 189.962 77.9353 190.238 78.058C190.912 78.3647 191.533 78.564 192.101 78.656C192.683 78.748 193.182 78.794 193.596 78.794C194.577 78.794 195.313 78.5717 195.804 78.127C196.294 77.6823 196.54 77 196.54 76.08V74.332H196.747C196.517 75.0373 196.041 75.6123 195.321 76.057C194.6 76.5017 193.803 76.724 192.929 76.724C191.917 76.724 191.035 76.494 190.284 76.034C189.532 75.5587 188.95 74.8993 188.536 74.056C188.122 73.1973 187.915 72.2083 187.915 71.089C187.915 70.2457 188.03 69.479 188.26 68.789C188.505 68.099 188.842 67.5087 189.272 67.018C189.716 66.5273 190.245 66.1517 190.859 65.891C191.487 65.615 192.177 65.477 192.929 65.477C193.833 65.477 194.631 65.6993 195.321 66.144C196.026 66.5733 196.494 67.1407 196.724 67.846L196.494 68.582V67.271C196.494 66.7037 196.639 66.2743 196.931 65.983C197.237 65.6763 197.667 65.523 198.219 65.523C198.771 65.523 199.192 65.6763 199.484 65.983C199.775 66.2743 199.921 66.7037 199.921 67.271V75.689C199.921 77.575 199.399 78.9933 198.357 79.944C197.329 80.91 195.842 81.393 193.895 81.393ZM193.964 74.125C194.485 74.125 194.93 74.0023 195.298 73.757C195.681 73.5117 195.98 73.1667 196.195 72.722C196.409 72.262 196.517 71.7177 196.517 71.089C196.517 70.1383 196.279 69.4023 195.804 68.881C195.344 68.3443 194.73 68.076 193.964 68.076C193.442 68.076 192.99 68.1987 192.607 68.444C192.223 68.674 191.924 69.019 191.71 69.479C191.51 69.9237 191.411 70.4603 191.411 71.089C191.411 72.0397 191.641 72.7833 192.101 73.32C192.561 73.8567 193.182 74.125 193.964 74.125ZM206.895 77.253C206.067 77.253 205.323 77.092 204.664 76.77C204.005 76.448 203.491 76.011 203.123 75.459C202.755 74.907 202.571 74.286 202.571 73.596C202.571 72.768 202.786 72.1163 203.215 71.641C203.644 71.1503 204.342 70.8053 205.308 70.606C206.274 70.3913 207.554 70.284 209.149 70.284H210.368V72.078H209.172C208.39 72.078 207.754 72.124 207.263 72.216C206.788 72.2927 206.443 72.4307 206.228 72.63C206.029 72.8293 205.929 73.1053 205.929 73.458C205.929 73.8873 206.075 74.24 206.366 74.516C206.673 74.792 207.11 74.93 207.677 74.93C208.122 74.93 208.513 74.8303 208.85 74.631C209.203 74.4163 209.479 74.1327 209.678 73.78C209.877 73.412 209.977 72.998 209.977 72.538V69.893C209.977 69.2183 209.824 68.743 209.517 68.467C209.21 68.1757 208.689 68.03 207.953 68.03C207.539 68.03 207.087 68.0837 206.596 68.191C206.121 68.283 205.592 68.444 205.009 68.674C204.672 68.8273 204.373 68.8657 204.112 68.789C203.851 68.697 203.652 68.5437 203.514 68.329C203.376 68.099 203.307 67.8537 203.307 67.593C203.307 67.317 203.384 67.0563 203.537 66.811C203.69 66.5503 203.943 66.3587 204.296 66.236C205.017 65.9447 205.691 65.7453 206.32 65.638C206.964 65.5307 207.554 65.477 208.091 65.477C209.272 65.477 210.238 65.6533 210.989 66.006C211.756 66.3433 212.331 66.8723 212.714 67.593C213.097 68.2983 213.289 69.2107 213.289 70.33V75.436C213.289 76.0033 213.151 76.4403 212.875 76.747C212.599 77.0537 212.2 77.207 211.679 77.207C211.158 77.207 210.751 77.0537 210.46 76.747C210.184 76.4403 210.046 76.0033 210.046 75.436V74.585L210.207 74.723C210.115 75.2443 209.916 75.6967 209.609 76.08C209.318 76.448 208.942 76.7393 208.482 76.954C208.022 77.1533 207.493 77.253 206.895 77.253ZM218.088 77.207C217.52 77.207 217.083 77.0537 216.777 76.747C216.485 76.4403 216.34 76.0033 216.34 75.436V67.271C216.34 66.7037 216.485 66.2743 216.777 65.983C217.083 65.6763 217.505 65.523 218.042 65.523C218.594 65.523 219.015 65.6763 219.307 65.983C219.598 66.2743 219.744 66.7037 219.744 67.271V68.582L219.491 67.823C219.843 67.0717 220.365 66.4967 221.055 66.098C221.76 65.684 222.557 65.477 223.447 65.477C224.351 65.477 225.095 65.6533 225.678 66.006C226.26 66.3433 226.697 66.8647 226.989 67.57C227.28 68.26 227.426 69.1417 227.426 70.215V75.436C227.426 76.0033 227.272 76.4403 226.966 76.747C226.674 77.0537 226.245 77.207 225.678 77.207C225.126 77.207 224.696 77.0537 224.39 76.747C224.098 76.4403 223.953 76.0033 223.953 75.436V70.376C223.953 69.594 223.807 69.0343 223.516 68.697C223.24 68.3443 222.81 68.168 222.228 68.168C221.492 68.168 220.901 68.398 220.457 68.858C220.027 69.318 219.813 69.9313 219.813 70.698V75.436C219.813 76.6167 219.238 77.207 218.088 77.207ZM234.872 77.253C233.89 77.253 233.024 77.0153 232.273 76.54C231.537 76.0647 230.962 75.3823 230.548 74.493C230.134 73.6037 229.927 72.5533 229.927 71.342C229.927 70.1307 230.134 69.088 230.548 68.214C230.962 67.34 231.537 66.6653 232.273 66.19C233.024 65.7147 233.89 65.477 234.872 65.477C235.761 65.477 236.543 65.6917 237.218 66.121C237.908 66.5503 238.375 67.11 238.621 67.8H238.368V62.349C238.368 61.7663 238.513 61.3293 238.805 61.038C239.096 60.7313 239.525 60.578 240.093 60.578C240.645 60.578 241.074 60.7313 241.381 61.038C241.687 61.3293 241.841 61.7663 241.841 62.349V75.436C241.841 76.0033 241.687 76.4403 241.381 76.747C241.089 77.0537 240.668 77.207 240.116 77.207C239.564 77.207 239.134 77.0537 238.828 76.747C238.536 76.4403 238.391 76.0033 238.391 75.436V73.872L238.644 74.769C238.429 75.5203 237.969 76.126 237.264 76.586C236.574 77.0307 235.776 77.253 234.872 77.253ZM235.907 74.654C236.413 74.654 236.85 74.5313 237.218 74.286C237.586 74.0407 237.877 73.6803 238.092 73.205C238.306 72.7143 238.414 72.0933 238.414 71.342C238.414 70.2227 238.184 69.4023 237.724 68.881C237.264 68.3443 236.658 68.076 235.907 68.076C235.416 68.076 234.979 68.191 234.596 68.421C234.228 68.651 233.936 69.0113 233.722 69.502C233.522 69.9773 233.423 70.5907 233.423 71.342C233.423 72.4613 233.653 73.297 234.113 73.849C234.573 74.3857 235.171 74.654 235.907 74.654ZM250.405 77.253C249.193 77.253 248.135 77.0153 247.231 76.54C246.341 76.0647 245.651 75.3823 245.161 74.493C244.67 73.6037 244.425 72.5533 244.425 71.342C244.425 70.4373 244.563 69.6247 244.839 68.904C245.115 68.1833 245.513 67.57 246.035 67.064C246.571 66.5427 247.208 66.1517 247.944 65.891C248.68 65.615 249.5 65.477 250.405 65.477C251.616 65.477 252.666 65.7147 253.556 66.19C254.46 66.6653 255.158 67.34 255.649 68.214C256.155 69.088 256.408 70.1307 256.408 71.342C256.408 72.262 256.262 73.0823 255.971 73.803C255.695 74.5237 255.296 75.1447 254.775 75.666C254.253 76.1873 253.617 76.586 252.866 76.862C252.13 77.1227 251.309 77.253 250.405 77.253ZM250.405 74.654C250.911 74.654 251.348 74.5313 251.716 74.286C252.084 74.0407 252.375 73.6803 252.59 73.205C252.804 72.7143 252.912 72.0933 252.912 71.342C252.912 70.2227 252.682 69.4023 252.222 68.881C251.762 68.3443 251.156 68.076 250.405 68.076C249.914 68.076 249.477 68.191 249.094 68.421C248.726 68.651 248.434 69.0113 248.22 69.502C248.02 69.9773 247.921 70.5907 247.921 71.342C247.921 72.4613 248.151 73.297 248.611 73.849C249.071 74.3857 249.669 74.654 250.405 74.654ZM270.188 77.253C269.514 77.253 268.816 77.1917 268.095 77.069C267.39 76.9463 266.746 76.7393 266.163 76.448C265.857 76.2947 265.634 76.103 265.496 75.873C265.374 75.6277 265.32 75.3823 265.335 75.137C265.351 74.8917 265.427 74.6693 265.565 74.47C265.719 74.2707 265.91 74.1403 266.14 74.079C266.386 74.0023 266.654 74.0253 266.945 74.148C267.574 74.4087 268.149 74.5927 268.67 74.7C269.192 74.8073 269.705 74.861 270.211 74.861C270.871 74.861 271.346 74.7613 271.637 74.562C271.944 74.3473 272.097 74.0713 272.097 73.734C272.097 73.4273 271.998 73.1973 271.798 73.044C271.599 72.8907 271.308 72.7833 270.924 72.722L268.509 72.285C267.559 72.1163 266.823 71.7713 266.301 71.25C265.795 70.7133 265.542 70.031 265.542 69.203C265.542 68.4363 265.757 67.777 266.186 67.225C266.616 66.6577 267.206 66.2283 267.957 65.937C268.724 65.6303 269.59 65.477 270.556 65.477C271.246 65.477 271.883 65.5383 272.465 65.661C273.048 65.7837 273.608 65.983 274.144 66.259C274.42 66.397 274.612 66.581 274.719 66.811C274.842 67.041 274.88 67.2787 274.834 67.524C274.804 67.7693 274.712 67.9917 274.558 68.191C274.405 68.3903 274.206 68.5207 273.96 68.582C273.73 68.6433 273.462 68.6127 273.155 68.49C272.665 68.26 272.212 68.099 271.798 68.007C271.384 67.8997 270.986 67.846 270.602 67.846C269.912 67.846 269.414 67.961 269.107 68.191C268.801 68.4057 268.647 68.6817 268.647 69.019C268.647 69.2797 268.732 69.502 268.9 69.686C269.084 69.8547 269.36 69.9697 269.728 70.031L272.143 70.468C273.14 70.6367 273.899 70.974 274.42 71.48C274.942 71.9707 275.202 72.6453 275.202 73.504C275.202 74.6693 274.742 75.5893 273.822 76.264C272.918 76.9233 271.706 77.253 270.188 77.253ZM281.463 77.253C280.635 77.253 279.891 77.092 279.232 76.77C278.572 76.448 278.059 76.011 277.691 75.459C277.323 74.907 277.139 74.286 277.139 73.596C277.139 72.768 277.353 72.1163 277.783 71.641C278.212 71.1503 278.91 70.8053 279.876 70.606C280.842 70.3913 282.122 70.284 283.717 70.284H284.936V72.078H283.74C282.958 72.078 282.321 72.124 281.831 72.216C281.355 72.2927 281.01 72.4307 280.796 72.63C280.596 72.8293 280.497 73.1053 280.497 73.458C280.497 73.8873 280.642 74.24 280.934 74.516C281.24 74.792 281.677 74.93 282.245 74.93C282.689 74.93 283.08 74.8303 283.418 74.631C283.77 74.4163 284.046 74.1327 284.246 73.78C284.445 73.412 284.545 72.998 284.545 72.538V69.893C284.545 69.2183 284.391 68.743 284.085 68.467C283.778 68.1757 283.257 68.03 282.521 68.03C282.107 68.03 281.654 68.0837 281.164 68.191C280.688 68.283 280.159 68.444 279.577 68.674C279.239 68.8273 278.94 68.8657 278.68 68.789C278.419 68.697 278.22 68.5437 278.082 68.329C277.944 68.099 277.875 67.8537 277.875 67.593C277.875 67.317 277.951 67.0563 278.105 66.811C278.258 66.5503 278.511 66.3587 278.864 66.236C279.584 65.9447 280.259 65.7453 280.888 65.638C281.532 65.5307 282.122 65.477 282.659 65.477C283.839 65.477 284.805 65.6533 285.557 66.006C286.323 66.3433 286.898 66.8723 287.282 67.593C287.665 68.2983 287.857 69.2107 287.857 70.33V75.436C287.857 76.0033 287.719 76.4403 287.443 76.747C287.167 77.0537 286.768 77.207 286.247 77.207C285.725 77.207 285.319 77.0537 285.028 76.747C284.752 76.4403 284.614 76.0033 284.614 75.436V74.585L284.775 74.723C284.683 75.2443 284.483 75.6967 284.177 76.08C283.885 76.448 283.51 76.7393 283.05 76.954C282.59 77.1533 282.061 77.253 281.463 77.253ZM294.978 77.253C293.614 77.253 292.594 76.8773 291.919 76.126C291.245 75.3593 290.907 74.2247 290.907 72.722V62.349C290.907 61.7663 291.053 61.3293 291.344 61.038C291.651 60.7313 292.088 60.578 292.655 60.578C293.207 60.578 293.629 60.7313 293.92 61.038C294.227 61.3293 294.38 61.7663 294.38 62.349V72.584C294.38 73.2127 294.511 73.6803 294.771 73.987C295.047 74.2783 295.408 74.424 295.852 74.424C295.975 74.424 296.09 74.4163 296.197 74.401C296.305 74.3857 296.42 74.378 296.542 74.378C296.788 74.3473 296.956 74.424 297.048 74.608C297.156 74.7767 297.209 75.1217 297.209 75.643C297.209 76.103 297.117 76.4557 296.933 76.701C296.749 76.931 296.466 77.0843 296.082 77.161C295.929 77.1763 295.753 77.1917 295.553 77.207C295.354 77.2377 295.162 77.253 294.978 77.253ZM303.307 77.253C302.326 77.253 301.46 77.0153 300.708 76.54C299.972 76.0647 299.397 75.3823 298.983 74.493C298.569 73.6037 298.362 72.5533 298.362 71.342C298.362 70.1307 298.569 69.088 298.983 68.214C299.397 67.34 299.972 66.6653 300.708 66.19C301.46 65.7147 302.326 65.477 303.307 65.477C304.197 65.477 304.979 65.6917 305.653 66.121C306.343 66.5503 306.811 67.11 307.056 67.8H306.803V62.349C306.803 61.7663 306.949 61.3293 307.24 61.038C307.532 60.7313 307.961 60.578 308.528 60.578C309.08 60.578 309.51 60.7313 309.816 61.038C310.123 61.3293 310.276 61.7663 310.276 62.349V75.436C310.276 76.0033 310.123 76.4403 309.816 76.747C309.525 77.0537 309.103 77.207 308.551 77.207C307.999 77.207 307.57 77.0537 307.263 76.747C306.972 76.4403 306.826 76.0033 306.826 75.436V73.872L307.079 74.769C306.865 75.5203 306.405 76.126 305.699 76.586C305.009 77.0307 304.212 77.253 303.307 77.253ZM304.342 74.654C304.848 74.654 305.285 74.5313 305.653 74.286C306.021 74.0407 306.313 73.6803 306.527 73.205C306.742 72.7143 306.849 72.0933 306.849 71.342C306.849 70.2227 306.619 69.4023 306.159 68.881C305.699 68.3443 305.094 68.076 304.342 68.076C303.852 68.076 303.415 68.191 303.031 68.421C302.663 68.651 302.372 69.0113 302.157 69.502C301.958 69.9773 301.858 70.5907 301.858 71.342C301.858 72.4613 302.088 73.297 302.548 73.849C303.008 74.3857 303.606 74.654 304.342 74.654ZM318.84 77.253C317.629 77.253 316.571 77.0153 315.666 76.54C314.777 76.0647 314.087 75.3823 313.596 74.493C313.106 73.6037 312.86 72.5533 312.86 71.342C312.86 70.4373 312.998 69.6247 313.274 68.904C313.55 68.1833 313.949 67.57 314.47 67.064C315.007 66.5427 315.643 66.1517 316.379 65.891C317.115 65.615 317.936 65.477 318.84 65.477C320.052 65.477 321.102 65.7147 321.991 66.19C322.896 66.6653 323.594 67.34 324.084 68.214C324.59 69.088 324.843 70.1307 324.843 71.342C324.843 72.262 324.698 73.0823 324.406 73.803C324.13 74.5237 323.732 75.1447 323.21 75.666C322.689 76.1873 322.053 76.586 321.301 76.862C320.565 77.1227 319.745 77.253 318.84 77.253ZM318.84 74.654C319.346 74.654 319.783 74.5313 320.151 74.286C320.519 74.0407 320.811 73.6803 321.025 73.205C321.24 72.7143 321.347 72.0933 321.347 71.342C321.347 70.2227 321.117 69.4023 320.657 68.881C320.197 68.3443 319.592 68.076 318.84 68.076C318.35 68.076 317.913 68.191 317.529 68.421C317.161 68.651 316.87 69.0113 316.655 69.502C316.456 69.9773 316.356 70.5907 316.356 71.342C316.356 72.4613 316.586 73.297 317.046 73.849C317.506 74.3857 318.104 74.654 318.84 74.654ZM170.781 103.253C169.8 103.253 168.934 103.015 168.182 102.54C167.446 102.065 166.871 101.382 166.457 100.493C166.043 99.6037 165.836 98.5533 165.836 97.342C165.836 96.1307 166.043 95.088 166.457 94.214C166.871 93.34 167.446 92.6653 168.182 92.19C168.934 91.7147 169.8 91.477 170.781 91.477C171.671 91.477 172.453 91.6917 173.127 92.121C173.817 92.5503 174.285 93.11 174.53 93.8H174.277V88.349C174.277 87.7663 174.423 87.3293 174.714 87.038C175.006 86.7313 175.435 86.578 176.002 86.578C176.554 86.578 176.984 86.7313 177.29 87.038C177.597 87.3293 177.75 87.7663 177.75 88.349V101.436C177.75 102.003 177.597 102.44 177.29 102.747C176.999 103.054 176.577 103.207 176.025 103.207C175.473 103.207 175.044 103.054 174.737 102.747C174.446 102.44 174.3 102.003 174.3 101.436V99.872L174.553 100.769C174.339 101.52 173.879 102.126 173.173 102.586C172.483 103.031 171.686 103.253 170.781 103.253ZM171.816 100.654C172.322 100.654 172.759 100.531 173.127 100.286C173.495 100.041 173.787 99.6803 174.001 99.205C174.216 98.7143 174.323 98.0933 174.323 97.342C174.323 96.2227 174.093 95.4023 173.633 94.881C173.173 94.3443 172.568 94.076 171.816 94.076C171.326 94.076 170.889 94.191 170.505 94.421C170.137 94.651 169.846 95.0113 169.631 95.502C169.432 95.9773 169.332 96.5907 169.332 97.342C169.332 98.4613 169.562 99.297 170.022 99.849C170.482 100.386 171.08 100.654 171.816 100.654ZM186.752 103.253C185.418 103.253 184.268 103.015 183.302 102.54C182.351 102.049 181.615 101.367 181.094 100.493C180.588 99.6037 180.335 98.561 180.335 97.365C180.335 96.1997 180.58 95.18 181.071 94.306C181.561 93.4167 182.244 92.7267 183.118 92.236C184.007 91.73 185.011 91.477 186.131 91.477C186.943 91.477 187.679 91.615 188.339 91.891C188.998 92.1517 189.565 92.535 190.041 93.041C190.516 93.5317 190.876 94.1373 191.122 94.858C191.367 95.5633 191.49 96.353 191.49 97.227C191.49 97.5183 191.398 97.7407 191.214 97.894C191.03 98.032 190.761 98.101 190.409 98.101H183.187V96.307H188.983L188.615 96.629C188.615 96.0003 188.523 95.479 188.339 95.065C188.155 94.6357 187.886 94.3137 187.534 94.099C187.196 93.8843 186.775 93.777 186.269 93.777C185.701 93.777 185.218 93.9073 184.82 94.168C184.421 94.4287 184.114 94.8043 183.9 95.295C183.685 95.7857 183.578 96.376 183.578 97.066V97.25C183.578 98.4153 183.846 99.274 184.383 99.826C184.935 100.378 185.747 100.654 186.821 100.654C187.189 100.654 187.61 100.608 188.086 100.516C188.561 100.424 189.006 100.278 189.42 100.079C189.772 99.9103 190.087 99.8567 190.363 99.918C190.639 99.964 190.853 100.087 191.007 100.286C191.16 100.485 191.244 100.715 191.26 100.976C191.29 101.237 191.237 101.497 191.099 101.758C190.961 102.003 190.731 102.21 190.409 102.379C189.887 102.67 189.297 102.885 188.638 103.023C187.994 103.176 187.365 103.253 186.752 103.253ZM198.294 103.253C197.619 103.253 196.921 103.192 196.201 103.069C195.495 102.946 194.851 102.739 194.269 102.448C193.962 102.295 193.74 102.103 193.602 101.873C193.479 101.628 193.425 101.382 193.441 101.137C193.456 100.892 193.533 100.669 193.671 100.47C193.824 100.271 194.016 100.14 194.246 100.079C194.491 100.002 194.759 100.025 195.051 100.148C195.679 100.409 196.254 100.593 196.776 100.7C197.297 100.807 197.811 100.861 198.317 100.861C198.976 100.861 199.451 100.761 199.743 100.562C200.049 100.347 200.203 100.071 200.203 99.734C200.203 99.4273 200.103 99.1973 199.904 99.044C199.704 98.8907 199.413 98.7833 199.03 98.722L196.615 98.285C195.664 98.1163 194.928 97.7713 194.407 97.25C193.901 96.7133 193.648 96.031 193.648 95.203C193.648 94.4363 193.862 93.777 194.292 93.225C194.721 92.6577 195.311 92.2283 196.063 91.937C196.829 91.6303 197.696 91.477 198.662 91.477C199.352 91.477 199.988 91.5383 200.571 91.661C201.153 91.7837 201.713 91.983 202.25 92.259C202.526 92.397 202.717 92.581 202.825 92.811C202.947 93.041 202.986 93.2787 202.94 93.524C202.909 93.7693 202.817 93.9917 202.664 94.191C202.51 94.3903 202.311 94.5207 202.066 94.582C201.836 94.6433 201.567 94.6127 201.261 94.49C200.77 94.26 200.318 94.099 199.904 94.007C199.49 93.8997 199.091 93.846 198.708 93.846C198.018 93.846 197.519 93.961 197.213 94.191C196.906 94.4057 196.753 94.6817 196.753 95.019C196.753 95.2797 196.837 95.502 197.006 95.686C197.19 95.8547 197.466 95.9697 197.834 96.031L200.249 96.468C201.245 96.6367 202.004 96.974 202.526 97.48C203.047 97.9707 203.308 98.6453 203.308 99.504C203.308 100.669 202.848 101.589 201.928 102.264C201.023 102.923 199.812 103.253 198.294 103.253ZM210.143 103.253C209.162 103.253 208.295 103.015 207.544 102.54C206.808 102.065 206.233 101.382 205.819 100.493C205.405 99.6037 205.198 98.5533 205.198 97.342C205.198 96.1307 205.405 95.088 205.819 94.214C206.233 93.34 206.808 92.6653 207.544 92.19C208.295 91.7147 209.162 91.477 210.143 91.477C211.032 91.477 211.814 91.6917 212.489 92.121C213.179 92.5503 213.647 93.11 213.892 93.8H213.639V88.349C213.639 87.7663 213.785 87.3293 214.076 87.038C214.367 86.7313 214.797 86.578 215.364 86.578C215.916 86.578 216.345 86.7313 216.652 87.038C216.959 87.3293 217.112 87.7663 217.112 88.349V101.436C217.112 102.003 216.959 102.44 216.652 102.747C216.361 103.054 215.939 103.207 215.387 103.207C214.835 103.207 214.406 103.054 214.099 102.747C213.808 102.44 213.662 102.003 213.662 101.436V99.872L213.915 100.769C213.7 101.52 213.24 102.126 212.535 102.586C211.845 103.031 211.048 103.253 210.143 103.253ZM211.178 100.654C211.684 100.654 212.121 100.531 212.489 100.286C212.857 100.041 213.148 99.6803 213.363 99.205C213.578 98.7143 213.685 98.0933 213.685 97.342C213.685 96.2227 213.455 95.4023 212.995 94.881C212.535 94.3443 211.929 94.076 211.178 94.076C210.687 94.076 210.25 94.191 209.867 94.421C209.499 94.651 209.208 95.0113 208.993 95.502C208.794 95.9773 208.694 96.5907 208.694 97.342C208.694 98.4613 208.924 99.297 209.384 99.849C209.844 100.386 210.442 100.654 211.178 100.654ZM226.113 103.253C224.779 103.253 223.629 103.015 222.663 102.54C221.712 102.049 220.976 101.367 220.455 100.493C219.949 99.6037 219.696 98.561 219.696 97.365C219.696 96.1997 219.941 95.18 220.432 94.306C220.923 93.4167 221.605 92.7267 222.479 92.236C223.368 91.73 224.373 91.477 225.492 91.477C226.305 91.477 227.041 91.615 227.7 91.891C228.359 92.1517 228.927 92.535 229.402 93.041C229.877 93.5317 230.238 94.1373 230.483 94.858C230.728 95.5633 230.851 96.353 230.851 97.227C230.851 97.5183 230.759 97.7407 230.575 97.894C230.391 98.032 230.123 98.101 229.77 98.101H222.548V96.307H228.344L227.976 96.629C227.976 96.0003 227.884 95.479 227.7 95.065C227.516 94.6357 227.248 94.3137 226.895 94.099C226.558 93.8843 226.136 93.777 225.63 93.777C225.063 93.777 224.58 93.9073 224.181 94.168C223.782 94.4287 223.476 94.8043 223.261 95.295C223.046 95.7857 222.939 96.376 222.939 97.066V97.25C222.939 98.4153 223.207 99.274 223.744 99.826C224.296 100.378 225.109 100.654 226.182 100.654C226.55 100.654 226.972 100.608 227.447 100.516C227.922 100.424 228.367 100.278 228.781 100.079C229.134 99.9103 229.448 99.8567 229.724 99.918C230 99.964 230.215 100.087 230.368 100.286C230.521 100.485 230.606 100.715 230.621 100.976C230.652 101.237 230.598 101.497 230.46 101.758C230.322 102.003 230.092 102.21 229.77 102.379C229.249 102.67 228.658 102.885 227.999 103.023C227.355 103.176 226.726 103.253 226.113 103.253ZM244.286 103.253C242.921 103.253 241.902 102.877 241.227 102.126C240.552 101.359 240.215 100.225 240.215 98.722V88.349C240.215 87.7663 240.361 87.3293 240.652 87.038C240.959 86.7313 241.396 86.578 241.963 86.578C242.515 86.578 242.937 86.7313 243.228 87.038C243.535 87.3293 243.688 87.7663 243.688 88.349V98.584C243.688 99.2127 243.818 99.6803 244.079 99.987C244.355 100.278 244.715 100.424 245.16 100.424C245.283 100.424 245.398 100.416 245.505 100.401C245.612 100.386 245.727 100.378 245.85 100.378C246.095 100.347 246.264 100.424 246.356 100.608C246.463 100.777 246.517 101.122 246.517 101.643C246.517 102.103 246.425 102.456 246.241 102.701C246.057 102.931 245.773 103.084 245.39 103.161C245.237 103.176 245.06 103.192 244.861 103.207C244.662 103.238 244.47 103.253 244.286 103.253ZM252.152 103.253C251.324 103.253 250.58 103.092 249.921 102.77C249.262 102.448 248.748 102.011 248.38 101.459C248.012 100.907 247.828 100.286 247.828 99.596C247.828 98.768 248.043 98.1163 248.472 97.641C248.901 97.1503 249.599 96.8053 250.565 96.606C251.531 96.3913 252.811 96.284 254.406 96.284H255.625V98.078H254.429C253.647 98.078 253.011 98.124 252.52 98.216C252.045 98.2927 251.7 98.4307 251.485 98.63C251.286 98.8293 251.186 99.1053 251.186 99.458C251.186 99.8873 251.332 100.24 251.623 100.516C251.93 100.792 252.367 100.93 252.934 100.93C253.379 100.93 253.77 100.83 254.107 100.631C254.46 100.416 254.736 100.133 254.935 99.78C255.134 99.412 255.234 98.998 255.234 98.538V95.893C255.234 95.2183 255.081 94.743 254.774 94.467C254.467 94.1757 253.946 94.03 253.21 94.03C252.796 94.03 252.344 94.0837 251.853 94.191C251.378 94.283 250.849 94.444 250.266 94.674C249.929 94.8273 249.63 94.8657 249.369 94.789C249.108 94.697 248.909 94.5437 248.771 94.329C248.633 94.099 248.564 93.8537 248.564 93.593C248.564 93.317 248.641 93.0563 248.794 92.811C248.947 92.5503 249.2 92.3587 249.553 92.236C250.274 91.9447 250.948 91.7453 251.577 91.638C252.221 91.5307 252.811 91.477 253.348 91.477C254.529 91.477 255.495 91.6533 256.246 92.006C257.013 92.3433 257.588 92.8723 257.971 93.593C258.354 94.2983 258.546 95.2107 258.546 96.33V101.436C258.546 102.003 258.408 102.44 258.132 102.747C257.856 103.054 257.457 103.207 256.936 103.207C256.415 103.207 256.008 103.054 255.717 102.747C255.441 102.44 255.303 102.003 255.303 101.436V100.585L255.464 100.723C255.372 101.244 255.173 101.697 254.866 102.08C254.575 102.448 254.199 102.739 253.739 102.954C253.279 103.153 252.75 103.253 252.152 103.253ZM272.299 103.253C271.471 103.253 270.727 103.092 270.068 102.77C269.408 102.448 268.895 102.011 268.527 101.459C268.159 100.907 267.975 100.286 267.975 99.596C267.975 98.768 268.189 98.1163 268.619 97.641C269.048 97.1503 269.746 96.8053 270.712 96.606C271.678 96.3913 272.958 96.284 274.553 96.284H275.772V98.078H274.576C273.794 98.078 273.157 98.124 272.667 98.216C272.191 98.2927 271.846 98.4307 271.632 98.63C271.432 98.8293 271.333 99.1053 271.333 99.458C271.333 99.8873 271.478 100.24 271.77 100.516C272.076 100.792 272.513 100.93 273.081 100.93C273.525 100.93 273.916 100.83 274.254 100.631C274.606 100.416 274.882 100.133 275.082 99.78C275.281 99.412 275.381 98.998 275.381 98.538V95.893C275.381 95.2183 275.227 94.743 274.921 94.467C274.614 94.1757 274.093 94.03 273.357 94.03C272.943 94.03 272.49 94.0837 272 94.191C271.524 94.283 270.995 94.444 270.413 94.674C270.075 94.8273 269.776 94.8657 269.516 94.789C269.255 94.697 269.056 94.5437 268.918 94.329C268.78 94.099 268.711 93.8537 268.711 93.593C268.711 93.317 268.787 93.0563 268.941 92.811C269.094 92.5503 269.347 92.3587 269.7 92.236C270.42 91.9447 271.095 91.7453 271.724 91.638C272.368 91.5307 272.958 91.477 273.495 91.477C274.675 91.477 275.641 91.6533 276.393 92.006C277.159 92.3433 277.734 92.8723 278.118 93.593C278.501 94.2983 278.693 95.2107 278.693 96.33V101.436C278.693 102.003 278.555 102.44 278.279 102.747C278.003 103.054 277.604 103.207 277.083 103.207C276.561 103.207 276.155 103.054 275.864 102.747C275.588 102.44 275.45 102.003 275.45 101.436V100.585L275.611 100.723C275.519 101.244 275.319 101.697 275.013 102.08C274.721 102.448 274.346 102.739 273.886 102.954C273.426 103.153 272.897 103.253 272.299 103.253ZM283.491 107.347C282.924 107.347 282.487 107.194 282.18 106.887C281.889 106.596 281.743 106.159 281.743 105.576V93.271C281.743 92.7037 281.889 92.2743 282.18 91.983C282.487 91.6763 282.909 91.523 283.445 91.523C284.013 91.523 284.442 91.6763 284.733 91.983C285.025 92.2743 285.17 92.7037 285.17 93.271V94.835L284.917 93.938C285.147 93.202 285.607 92.6117 286.297 92.167C287.003 91.707 287.808 91.477 288.712 91.477C289.694 91.477 290.552 91.7147 291.288 92.19C292.04 92.6653 292.622 93.34 293.036 94.214C293.45 95.088 293.657 96.1307 293.657 97.342C293.657 98.5533 293.45 99.6037 293.036 100.493C292.622 101.382 292.047 102.065 291.311 102.54C290.575 103.015 289.709 103.253 288.712 103.253C287.823 103.253 287.033 103.038 286.343 102.609C285.653 102.164 285.186 101.589 284.94 100.884H285.216V105.576C285.216 106.159 285.063 106.596 284.756 106.887C284.465 107.194 284.043 107.347 283.491 107.347ZM287.677 100.654C288.168 100.654 288.597 100.531 288.965 100.286C289.349 100.041 289.64 99.6803 289.839 99.205C290.054 98.7143 290.161 98.0933 290.161 97.342C290.161 96.2227 289.931 95.4023 289.471 94.881C289.011 94.3443 288.413 94.076 287.677 94.076C287.187 94.076 286.75 94.191 286.366 94.421C285.998 94.651 285.707 95.0113 285.492 95.502C285.278 95.9773 285.17 96.5907 285.17 97.342C285.17 98.4613 285.4 99.297 285.86 99.849C286.32 100.386 286.926 100.654 287.677 100.654ZM297.989 107.347C297.422 107.347 296.985 107.194 296.678 106.887C296.387 106.596 296.241 106.159 296.241 105.576V93.271C296.241 92.7037 296.387 92.2743 296.678 91.983C296.985 91.6763 297.407 91.523 297.943 91.523C298.511 91.523 298.94 91.6763 299.231 91.983C299.523 92.2743 299.668 92.7037 299.668 93.271V94.835L299.415 93.938C299.645 93.202 300.105 92.6117 300.795 92.167C301.501 91.707 302.306 91.477 303.21 91.477C304.192 91.477 305.05 91.7147 305.786 92.19C306.538 92.6653 307.12 93.34 307.534 94.214C307.948 95.088 308.155 96.1307 308.155 97.342C308.155 98.5533 307.948 99.6037 307.534 100.493C307.12 101.382 306.545 102.065 305.809 102.54C305.073 103.015 304.207 103.253 303.21 103.253C302.321 103.253 301.531 103.038 300.841 102.609C300.151 102.164 299.684 101.589 299.438 100.884H299.714V105.576C299.714 106.159 299.561 106.596 299.254 106.887C298.963 107.194 298.541 107.347 297.989 107.347ZM302.175 100.654C302.666 100.654 303.095 100.531 303.463 100.286C303.847 100.041 304.138 99.6803 304.337 99.205C304.552 98.7143 304.659 98.0933 304.659 97.342C304.659 96.2227 304.429 95.4023 303.969 94.881C303.509 94.3443 302.911 94.076 302.175 94.076C301.685 94.076 301.248 94.191 300.864 94.421C300.496 94.651 300.205 95.0113 299.99 95.502C299.776 95.9773 299.668 96.5907 299.668 97.342C299.668 98.4613 299.898 99.297 300.358 99.849C300.818 100.386 301.424 100.654 302.175 100.654Z" fill="white"/>
<path d="M38.32 88.44C36.9067 88.44 35.4667 88.28 34 87.96C32.56 87.6133 31.3067 87.1333 30.24 86.52C29.5467 86.1467 29.0667 85.7067 28.8 85.2C28.56 84.6667 28.4667 84.1467 28.52 83.64C28.6 83.1333 28.8133 82.6933 29.16 82.32C29.5067 81.92 29.9467 81.6667 30.48 81.56C31.04 81.4533 31.6533 81.56 32.32 81.88C33.36 82.3867 34.3467 82.7467 35.28 82.96C36.2133 83.1733 37.1467 83.28 38.08 83.28C39.1467 83.28 40.04 83.1467 40.76 82.88C41.48 82.5867 42.0267 82.1733 42.4 81.64C42.7733 81.1067 42.96 80.44 42.96 79.64C42.96 78.52 42.5733 77.68 41.8 77.12C41.0267 76.56 39.8933 76.28 38.4 76.28H36.04C35.16 76.28 34.48 76.0667 34 75.64C33.5467 75.1867 33.32 74.5733 33.32 73.8C33.32 73 33.5467 72.3867 34 71.96C34.48 71.5067 35.16 71.28 36.04 71.28H37.8C38.7067 71.28 39.4667 71.1467 40.08 70.88C40.72 70.5867 41.2133 70.1867 41.56 69.68C41.9333 69.1733 42.12 68.5467 42.12 67.8C42.12 66.7333 41.7467 65.92 41 65.36C40.28 64.8 39.2267 64.52 37.84 64.52C36.9867 64.52 36.1467 64.6267 35.32 64.84C34.4933 65.0267 33.6 65.3733 32.64 65.88C32.0533 66.1733 31.5067 66.2667 31 66.16C30.4933 66.0533 30.0667 65.8133 29.72 65.44C29.4 65.0667 29.1867 64.64 29.08 64.16C29 63.6533 29.0667 63.1467 29.28 62.64C29.52 62.1333 29.9467 61.72 30.56 61.4C31.7067 60.7333 32.9467 60.2267 34.28 59.88C35.64 59.5333 37.0133 59.36 38.4 59.36C40.4267 59.36 42.16 59.6667 43.6 60.28C45.04 60.8933 46.1467 61.7733 46.92 62.92C47.6933 64.04 48.08 65.4 48.08 67C48.08 68.0933 47.8667 69.0933 47.44 70C47.0133 70.9067 46.4133 71.68 45.64 72.32C44.8933 72.9333 43.9733 73.3733 42.88 73.64V73.12C44.7733 73.44 46.2533 74.2267 47.32 75.48C48.3867 76.7333 48.92 78.3067 48.92 80.2C48.92 81.88 48.4933 83.3467 47.64 84.6C46.7867 85.8267 45.56 86.7733 43.96 87.44C42.3867 88.1067 40.5067 88.44 38.32 88.44ZM63.7844 88.44C60.371 88.44 57.7577 87.1733 55.9444 84.64C54.1577 82.08 53.2644 78.4667 53.2644 73.8C53.2644 70.68 53.6644 68.0533 54.4644 65.92C55.291 63.76 56.4777 62.1333 58.0244 61.04C59.5977 59.92 61.5177 59.36 63.7844 59.36C67.2244 59.36 69.8377 60.6 71.6244 63.08C73.411 65.5333 74.3044 69.1067 74.3044 73.8C74.3044 76.92 73.891 79.5733 73.0644 81.76C72.2644 83.92 71.091 85.5733 69.5444 86.72C67.9977 87.8667 66.0777 88.44 63.7844 88.44ZM63.7844 83.4C65.331 83.4 66.4777 82.64 67.2244 81.12C67.971 79.5733 68.3444 77.1333 68.3444 73.8C68.3444 70.4667 67.971 68.0667 67.2244 66.6C66.4777 65.1333 65.331 64.4 63.7844 64.4C62.2377 64.4 61.091 65.1333 60.3444 66.6C59.5977 68.0667 59.2244 70.4667 59.2244 73.8C59.2244 77.1333 59.5977 79.5733 60.3444 81.12C61.091 82.64 62.2377 83.4 63.7844 83.4ZM90.4087 87.48C90.0887 88.0133 89.7021 88.36 89.2487 88.52C88.7954 88.7067 88.3421 88.7467 87.8887 88.64C87.4354 88.5333 87.0487 88.32 86.7287 88C86.4354 87.6533 86.2487 87.24 86.1687 86.76C86.0887 86.28 86.2087 85.7733 86.5287 85.24L100.889 60.36C101.209 59.8 101.595 59.4267 102.049 59.24C102.502 59.0533 102.942 59.0267 103.369 59.16C103.822 59.2667 104.209 59.4933 104.529 59.84C104.849 60.16 105.049 60.56 105.129 61.04C105.209 61.52 105.089 62.0267 104.769 62.56L90.4087 87.48ZM85.3687 76.6C83.0487 76.6 81.2487 75.8267 79.9687 74.28C78.6887 72.7067 78.0487 70.6 78.0487 67.96C78.0487 66.1733 78.3287 64.64 78.8887 63.36C79.4754 62.08 80.3154 61.0933 81.4087 60.4C82.5287 59.7067 83.8487 59.36 85.3687 59.36C87.6621 59.36 89.4487 60.1467 90.7287 61.72C92.0354 63.2667 92.6887 65.3467 92.6887 67.96C92.6887 69.72 92.3954 71.2533 91.8087 72.56C91.2487 73.84 90.4221 74.84 89.3287 75.56C88.2354 76.2533 86.9154 76.6 85.3687 76.6ZM85.3687 72.76C85.9021 72.76 86.3421 72.6 86.6887 72.28C87.0621 71.9333 87.3421 71.4133 87.5287 70.72C87.7421 70 87.8487 69.08 87.8487 67.96C87.8487 66.28 87.6221 65.08 87.1687 64.36C86.7421 63.6133 86.1421 63.24 85.3687 63.24C84.8354 63.24 84.3821 63.4 84.0087 63.72C83.6354 64.04 83.3554 64.5467 83.1687 65.24C82.9821 65.9067 82.8887 66.8133 82.8887 67.96C82.8887 69.6667 83.1021 70.8933 83.5287 71.64C83.9554 72.3867 84.5687 72.76 85.3687 72.76ZM105.969 88.44C103.649 88.44 101.849 87.6533 100.569 86.08C99.2888 84.5067 98.6488 82.4 98.6488 79.76C98.6488 78 98.9421 76.48 99.5287 75.2C100.115 73.92 100.955 72.9333 102.049 72.24C103.142 71.5467 104.449 71.2 105.969 71.2C108.262 71.2 110.049 71.9733 111.329 73.52C112.635 75.0667 113.289 77.1467 113.289 79.76C113.289 81.52 112.995 83.0533 112.409 84.36C111.849 85.6667 111.022 86.68 109.929 87.4C108.835 88.0933 107.515 88.44 105.969 88.44ZM105.969 84.56C106.502 84.56 106.942 84.4 107.289 84.08C107.662 83.76 107.942 83.24 108.129 82.52C108.342 81.8 108.449 80.88 108.449 79.76C108.449 78.08 108.222 76.88 107.769 76.16C107.342 75.4133 106.742 75.04 105.969 75.04C105.435 75.04 104.982 75.2 104.609 75.52C104.262 75.84 103.982 76.3467 103.769 77.04C103.582 77.7333 103.489 78.64 103.489 79.76C103.489 81.4933 103.702 82.7333 104.129 83.48C104.555 84.2 105.169 84.56 105.969 84.56Z" fill="#4A4A4A"/>
<path d="M31.698 108.162C30.918 108.162 30.234 107.976 29.646 107.604C29.07 107.232 28.62 106.71 28.296 106.038C27.984 105.354 27.828 104.55 27.828 103.626C27.828 102.69 27.984 101.886 28.296 101.214C28.62 100.53 29.07 100.008 29.646 99.648C30.234 99.276 30.918 99.09 31.698 99.09C32.49 99.09 33.168 99.288 33.732 99.684C34.296 100.08 34.674 100.614 34.866 101.286H34.668V95.922C34.668 95.682 34.728 95.502 34.848 95.382C34.98 95.25 35.166 95.184 35.406 95.184C35.634 95.184 35.808 95.25 35.928 95.382C36.06 95.502 36.126 95.682 36.126 95.922V107.37C36.126 107.61 36.066 107.796 35.946 107.928C35.826 108.06 35.646 108.126 35.406 108.126C35.178 108.126 34.998 108.06 34.866 107.928C34.746 107.796 34.686 107.61 34.686 107.37V105.66L34.884 105.912C34.692 106.596 34.308 107.142 33.732 107.55C33.168 107.958 32.49 108.162 31.698 108.162ZM32.004 106.992C32.544 106.992 33.018 106.86 33.426 106.596C33.834 106.332 34.146 105.948 34.362 105.444C34.59 104.94 34.704 104.334 34.704 103.626C34.704 102.534 34.458 101.7 33.966 101.124C33.486 100.548 32.832 100.26 32.004 100.26C31.452 100.26 30.972 100.392 30.564 100.656C30.168 100.908 29.856 101.286 29.628 101.79C29.412 102.282 29.304 102.894 29.304 103.626C29.304 104.706 29.55 105.54 30.042 106.128C30.534 106.704 31.188 106.992 32.004 106.992ZM43.1641 108.162C42.2401 108.162 41.4421 107.982 40.7701 107.622C40.1101 107.25 39.5941 106.728 39.2221 106.056C38.8621 105.384 38.6821 104.58 38.6821 103.644C38.6821 102.732 38.8621 101.94 39.2221 101.268C39.5821 100.584 40.0741 100.05 40.6981 99.666C41.3341 99.282 42.0661 99.09 42.8941 99.09C43.4821 99.09 44.0101 99.192 44.4781 99.396C44.9461 99.588 45.3421 99.87 45.6661 100.242C46.0021 100.614 46.2541 101.064 46.4221 101.592C46.6021 102.12 46.6921 102.714 46.6921 103.374C46.6921 103.566 46.6381 103.71 46.5301 103.806C46.4221 103.89 46.2661 103.932 46.0621 103.932H39.7981V102.978H45.7201L45.4321 103.212C45.4321 102.564 45.3361 102.018 45.1441 101.574C44.9521 101.118 44.6701 100.77 44.2981 100.53C43.9381 100.29 43.4821 100.17 42.9301 100.17C42.3181 100.17 41.7961 100.314 41.3641 100.602C40.9441 100.878 40.6261 101.268 40.4101 101.772C40.1941 102.264 40.0861 102.84 40.0861 103.5V103.608C40.0861 104.712 40.3501 105.552 40.8781 106.128C41.4181 106.704 42.1801 106.992 43.1641 106.992C43.5721 106.992 43.9741 106.938 44.3701 106.83C44.7781 106.722 45.1741 106.542 45.5581 106.29C45.7261 106.182 45.8761 106.134 46.0081 106.146C46.1521 106.146 46.2661 106.188 46.3501 106.272C46.4341 106.344 46.4881 106.44 46.5121 106.56C46.5481 106.668 46.5361 106.788 46.4761 106.92C46.4281 107.052 46.3261 107.166 46.1701 107.262C45.7741 107.55 45.3061 107.772 44.7661 107.928C44.2261 108.084 43.6921 108.162 43.1641 108.162ZM52.1142 108.162C51.5742 108.162 51.0282 108.096 50.4762 107.964C49.9362 107.832 49.4322 107.604 48.9642 107.28C48.8442 107.196 48.7602 107.1 48.7122 106.992C48.6642 106.872 48.6462 106.758 48.6582 106.65C48.6822 106.53 48.7302 106.428 48.8022 106.344C48.8862 106.26 48.9822 106.212 49.0902 106.2C49.2102 106.176 49.3422 106.2 49.4862 106.272C49.9542 106.56 50.4042 106.764 50.8362 106.884C51.2802 106.992 51.7182 107.046 52.1502 107.046C52.8342 107.046 53.3502 106.92 53.6982 106.668C54.0462 106.416 54.2202 106.074 54.2202 105.642C54.2202 105.306 54.1062 105.042 53.8782 104.85C53.6502 104.646 53.2902 104.49 52.7982 104.382L51.1602 104.022C50.4042 103.866 49.8402 103.596 49.4682 103.212C49.1082 102.828 48.9282 102.33 48.9282 101.718C48.9282 101.178 49.0662 100.716 49.3422 100.332C49.6302 99.936 50.0322 99.63 50.5482 99.414C51.0642 99.198 51.6642 99.09 52.3482 99.09C52.8762 99.09 53.3742 99.162 53.8422 99.306C54.3222 99.438 54.7542 99.654 55.1382 99.954C55.2582 100.038 55.3362 100.14 55.3722 100.26C55.4202 100.368 55.4262 100.482 55.3902 100.602C55.3662 100.71 55.3122 100.806 55.2282 100.89C55.1442 100.962 55.0422 101.004 54.9222 101.016C54.8022 101.028 54.6762 100.992 54.5442 100.908C54.1842 100.668 53.8182 100.494 53.4462 100.386C53.0742 100.266 52.7082 100.206 52.3482 100.206C51.6762 100.206 51.1662 100.338 50.8182 100.602C50.4702 100.866 50.2962 101.214 50.2962 101.646C50.2962 101.982 50.4042 102.258 50.6202 102.474C50.8362 102.69 51.1722 102.846 51.6282 102.942L53.2662 103.284C54.0462 103.452 54.6282 103.722 55.0122 104.094C55.4082 104.454 55.6062 104.946 55.6062 105.57C55.6062 106.362 55.2882 106.992 54.6522 107.46C54.0162 107.928 53.1702 108.162 52.1142 108.162ZM61.8962 108.162C61.0202 108.162 60.2642 107.97 59.6282 107.586C58.9922 107.202 58.5002 106.668 58.1522 105.984C57.8162 105.288 57.6482 104.484 57.6482 103.572C57.6482 102.876 57.7442 102.252 57.9362 101.7C58.1282 101.148 58.4102 100.68 58.7822 100.296C59.1542 99.9 59.5982 99.6 60.1142 99.396C60.6422 99.192 61.2362 99.09 61.8962 99.09C62.3282 99.09 62.7782 99.156 63.2462 99.288C63.7142 99.42 64.1402 99.648 64.5242 99.972C64.6442 100.056 64.7222 100.158 64.7582 100.278C64.7942 100.398 64.7942 100.518 64.7582 100.638C64.7222 100.746 64.6622 100.842 64.5782 100.926C64.4942 100.998 64.3862 101.04 64.2542 101.052C64.1342 101.064 64.0082 101.022 63.8762 100.926C63.5642 100.686 63.2462 100.518 62.9222 100.422C62.5982 100.326 62.2862 100.278 61.9862 100.278C61.5182 100.278 61.1102 100.356 60.7622 100.512C60.4142 100.656 60.1202 100.866 59.8802 101.142C59.6402 101.418 59.4542 101.76 59.3222 102.168C59.2022 102.576 59.1422 103.05 59.1422 103.59C59.1422 104.634 59.3882 105.462 59.8802 106.074C60.3722 106.674 61.0742 106.974 61.9862 106.974C62.2862 106.974 62.5922 106.926 62.9042 106.83C63.2282 106.734 63.5522 106.566 63.8762 106.326C64.0082 106.23 64.1342 106.188 64.2542 106.2C64.3742 106.212 64.4762 106.26 64.5602 106.344C64.6442 106.416 64.6982 106.512 64.7222 106.632C64.7582 106.752 64.7582 106.872 64.7222 106.992C64.6862 107.1 64.6082 107.196 64.4882 107.28C64.1042 107.592 63.6842 107.82 63.2282 107.964C62.7722 108.096 62.3282 108.162 61.8962 108.162ZM69.9763 108.162C69.2683 108.162 68.6803 108.036 68.2123 107.784C67.7563 107.52 67.4083 107.13 67.1683 106.614C66.9403 106.098 66.8263 105.456 66.8263 104.688V99.864C66.8263 99.612 66.8863 99.426 67.0063 99.306C67.1383 99.186 67.3183 99.126 67.5463 99.126C67.7863 99.126 67.9663 99.186 68.0863 99.306C68.2183 99.426 68.2843 99.612 68.2843 99.864V104.67C68.2843 105.438 68.4403 106.014 68.7523 106.398C69.0763 106.77 69.5803 106.956 70.2643 106.956C71.0083 106.956 71.6143 106.704 72.0823 106.2C72.5503 105.696 72.7843 105.036 72.7843 104.22V99.864C72.7843 99.612 72.8443 99.426 72.9643 99.306C73.0963 99.186 73.2823 99.126 73.5223 99.126C73.7503 99.126 73.9243 99.186 74.0443 99.306C74.1763 99.426 74.2423 99.612 74.2423 99.864V107.37C74.2423 107.874 74.0083 108.126 73.5403 108.126C73.3123 108.126 73.1323 108.06 73.0003 107.928C72.8803 107.796 72.8203 107.61 72.8203 107.37V105.732L73.0543 105.984C72.8143 106.692 72.4183 107.232 71.8663 107.604C71.3263 107.976 70.6963 108.162 69.9763 108.162ZM81.2721 108.162C80.3481 108.162 79.5501 107.982 78.8781 107.622C78.2181 107.25 77.7021 106.728 77.3301 106.056C76.9701 105.384 76.7901 104.58 76.7901 103.644C76.7901 102.732 76.9701 101.94 77.3301 101.268C77.6901 100.584 78.1821 100.05 78.8061 99.666C79.4421 99.282 80.1741 99.09 81.0021 99.09C81.5901 99.09 82.1181 99.192 82.5861 99.396C83.0541 99.588 83.4501 99.87 83.7741 100.242C84.1101 100.614 84.3621 101.064 84.5301 101.592C84.7101 102.12 84.8001 102.714 84.8001 103.374C84.8001 103.566 84.7461 103.71 84.6381 103.806C84.5301 103.89 84.3741 103.932 84.1701 103.932H77.9061V102.978H83.8281L83.5401 103.212C83.5401 102.564 83.4441 102.018 83.2521 101.574C83.0601 101.118 82.7781 100.77 82.4061 100.53C82.0461 100.29 81.5901 100.17 81.0381 100.17C80.4261 100.17 79.9041 100.314 79.4721 100.602C79.0521 100.878 78.7341 101.268 78.5181 101.772C78.3021 102.264 78.1941 102.84 78.1941 103.5V103.608C78.1941 104.712 78.4581 105.552 78.9861 106.128C79.5261 106.704 80.2881 106.992 81.2721 106.992C81.6801 106.992 82.0821 106.938 82.4781 106.83C82.8861 106.722 83.2821 106.542 83.6661 106.29C83.8341 106.182 83.9841 106.134 84.1161 106.146C84.2601 106.146 84.3741 106.188 84.4581 106.272C84.5421 106.344 84.5961 106.44 84.6201 106.56C84.6561 106.668 84.6441 106.788 84.5841 106.92C84.5361 107.052 84.4341 107.166 84.2781 107.262C83.8821 107.55 83.4141 107.772 82.8741 107.928C82.3341 108.084 81.8001 108.162 81.2721 108.162ZM87.9902 108.126C87.7502 108.126 87.5702 108.06 87.4502 107.928C87.3302 107.796 87.2702 107.61 87.2702 107.37V99.864C87.2702 99.624 87.3302 99.444 87.4502 99.324C87.5702 99.192 87.7442 99.126 87.9722 99.126C88.2002 99.126 88.3742 99.192 88.4942 99.324C88.6262 99.444 88.6922 99.624 88.6922 99.864V101.412L88.4942 101.196C88.7462 100.5 89.1542 99.978 89.7182 99.63C90.2942 99.27 90.9542 99.09 91.6982 99.09C92.3942 99.09 92.9702 99.216 93.4262 99.468C93.8942 99.72 94.2422 100.104 94.4702 100.62C94.6982 101.124 94.8122 101.766 94.8122 102.546V107.37C94.8122 107.61 94.7462 107.796 94.6142 107.928C94.4942 108.06 94.3202 108.126 94.0922 108.126C93.8522 108.126 93.6662 108.06 93.5342 107.928C93.4142 107.796 93.3542 107.61 93.3542 107.37V102.636C93.3542 101.82 93.1922 101.226 92.8682 100.854C92.5562 100.47 92.0522 100.278 91.3562 100.278C90.5522 100.278 89.9102 100.53 89.4302 101.034C88.9622 101.526 88.7282 102.186 88.7282 103.014V107.37C88.7282 107.874 88.4822 108.126 87.9902 108.126ZM101.371 108.162C100.687 108.162 100.111 108.042 99.6427 107.802C99.1867 107.55 98.8447 107.19 98.6167 106.722C98.3887 106.242 98.2747 105.66 98.2747 104.976V100.386H97.0687C96.8647 100.386 96.7087 100.338 96.6007 100.242C96.4927 100.134 96.4387 99.99 96.4387 99.81C96.4387 99.63 96.4927 99.492 96.6007 99.396C96.7087 99.3 96.8647 99.252 97.0687 99.252H98.2747V97.182C98.2747 96.942 98.3407 96.762 98.4727 96.642C98.6047 96.51 98.7847 96.444 99.0127 96.444C99.2407 96.444 99.4147 96.51 99.5347 96.642C99.6667 96.762 99.7327 96.942 99.7327 97.182V99.252H102.001C102.205 99.252 102.361 99.3 102.469 99.396C102.577 99.492 102.631 99.63 102.631 99.81C102.631 99.99 102.577 100.134 102.469 100.242C102.361 100.338 102.205 100.386 102.001 100.386H99.7327V104.832C99.7327 105.516 99.8767 106.038 100.165 106.398C100.453 106.746 100.921 106.92 101.569 106.92C101.797 106.92 101.989 106.896 102.145 106.848C102.313 106.8 102.451 106.776 102.559 106.776C102.667 106.764 102.757 106.8 102.829 106.884C102.901 106.968 102.937 107.112 102.937 107.316C102.937 107.46 102.907 107.592 102.847 107.712C102.799 107.832 102.709 107.916 102.577 107.964C102.433 108.012 102.241 108.054 102.001 108.09C101.773 108.138 101.563 108.162 101.371 108.162ZM108.062 108.162C107.21 108.162 106.472 107.976 105.848 107.604C105.224 107.232 104.738 106.71 104.39 106.038C104.054 105.354 103.886 104.55 103.886 103.626C103.886 102.93 103.982 102.306 104.174 101.754C104.366 101.19 104.648 100.71 105.02 100.314C105.392 99.918 105.83 99.618 106.334 99.414C106.85 99.198 107.426 99.09 108.062 99.09C108.914 99.09 109.652 99.276 110.276 99.648C110.9 100.02 111.38 100.548 111.716 101.232C112.064 101.904 112.238 102.702 112.238 103.626C112.238 104.322 112.142 104.946 111.95 105.498C111.758 106.05 111.476 106.53 111.104 106.938C110.732 107.334 110.288 107.64 109.772 107.856C109.268 108.06 108.698 108.162 108.062 108.162ZM108.062 106.992C108.602 106.992 109.076 106.86 109.484 106.596C109.892 106.332 110.204 105.948 110.42 105.444C110.648 104.94 110.762 104.334 110.762 103.626C110.762 102.534 110.516 101.7 110.024 101.124C109.544 100.548 108.89 100.26 108.062 100.26C107.51 100.26 107.03 100.392 106.622 100.656C106.226 100.908 105.914 101.286 105.686 101.79C105.47 102.282 105.362 102.894 105.362 103.626C105.362 104.706 105.608 105.54 106.1 106.128C106.592 106.704 107.246 106.992 108.062 106.992Z" fill="#4A4A4A"/>
<path d="M166.084 153.084C165.948 153.084 165.828 153.048 165.724 152.976C165.62 152.896 165.532 152.776 165.46 152.616L163.384 147.768C163.328 147.648 163.308 147.536 163.324 147.432C163.34 147.328 163.388 147.244 163.468 147.18C163.548 147.116 163.66 147.084 163.804 147.084C163.932 147.084 164.032 147.112 164.104 147.168C164.176 147.224 164.24 147.324 164.296 147.468L166.264 152.28H165.94L167.944 147.468C168 147.324 168.064 147.224 168.136 147.168C168.208 147.112 168.312 147.084 168.448 147.084C168.576 147.084 168.672 147.116 168.736 147.18C168.808 147.244 168.848 147.328 168.856 147.432C168.872 147.528 168.856 147.636 168.808 147.756L166.708 152.616C166.652 152.776 166.568 152.896 166.456 152.976C166.352 153.048 166.228 153.084 166.084 153.084ZM172.164 153.108C171.764 153.108 171.404 153.032 171.084 152.88C170.772 152.72 170.524 152.504 170.34 152.232C170.156 151.96 170.064 151.656 170.064 151.32C170.064 150.888 170.172 150.548 170.388 150.3C170.612 150.052 170.976 149.876 171.48 149.772C171.992 149.668 172.688 149.616 173.568 149.616H174.108V150.252H173.58C172.932 150.252 172.42 150.284 172.044 150.348C171.676 150.404 171.416 150.504 171.264 150.648C171.12 150.792 171.048 150.996 171.048 151.26C171.048 151.588 171.16 151.856 171.384 152.064C171.616 152.272 171.928 152.376 172.32 152.376C172.64 152.376 172.92 152.3 173.16 152.148C173.408 151.996 173.6 151.788 173.736 151.524C173.88 151.26 173.952 150.956 173.952 150.612V149.244C173.952 148.748 173.852 148.392 173.652 148.176C173.452 147.952 173.124 147.84 172.668 147.84C172.388 147.84 172.108 147.876 171.828 147.948C171.548 148.02 171.252 148.136 170.94 148.296C170.828 148.352 170.732 148.372 170.652 148.356C170.572 148.332 170.508 148.288 170.46 148.224C170.412 148.16 170.384 148.088 170.376 148.008C170.368 147.92 170.384 147.836 170.424 147.756C170.472 147.676 170.544 147.612 170.64 147.564C170.992 147.388 171.34 147.26 171.684 147.18C172.028 147.1 172.356 147.06 172.668 147.06C173.172 147.06 173.588 147.144 173.916 147.312C174.244 147.472 174.488 147.72 174.648 148.056C174.808 148.384 174.888 148.808 174.888 149.328V152.58C174.888 152.74 174.848 152.864 174.768 152.952C174.696 153.04 174.588 153.084 174.444 153.084C174.292 153.084 174.176 153.04 174.096 152.952C174.016 152.864 173.976 152.74 173.976 152.58V151.644H174.084C174.02 151.948 173.896 152.208 173.712 152.424C173.536 152.64 173.316 152.808 173.052 152.928C172.788 153.048 172.492 153.108 172.164 153.108ZM173.076 146.328C173.02 146.408 172.952 146.456 172.872 146.472C172.792 146.48 172.716 146.468 172.644 146.436C172.572 146.396 172.52 146.34 172.488 146.268C172.456 146.196 172.464 146.112 172.512 146.016L173.52 144.06C173.576 143.948 173.648 143.876 173.736 143.844C173.824 143.812 173.912 143.808 174 143.832C174.096 143.848 174.176 143.888 174.24 143.952C174.304 144.016 174.34 144.092 174.348 144.18C174.364 144.268 174.34 144.36 174.276 144.456L173.076 146.328ZM178.707 153.108C178.131 153.108 177.691 152.932 177.387 152.58C177.083 152.228 176.931 151.724 176.931 151.068V144.948C176.931 144.788 176.971 144.668 177.051 144.588C177.131 144.5 177.251 144.456 177.411 144.456C177.563 144.456 177.683 144.5 177.771 144.588C177.859 144.668 177.903 144.788 177.903 144.948V150.996C177.903 151.428 177.987 151.752 178.155 151.968C178.331 152.176 178.587 152.28 178.923 152.28C178.995 152.28 179.059 152.276 179.115 152.268C179.171 152.26 179.227 152.256 179.283 152.256C179.371 152.248 179.431 152.268 179.463 152.316C179.503 152.364 179.523 152.46 179.523 152.604C179.523 152.748 179.491 152.856 179.427 152.928C179.363 153 179.259 153.048 179.115 153.072C179.051 153.08 178.983 153.088 178.911 153.096C178.839 153.104 178.771 153.108 178.707 153.108ZM181.202 153.06C181.042 153.06 180.922 153.016 180.842 152.928C180.762 152.832 180.722 152.7 180.722 152.532V147.624C180.722 147.456 180.762 147.328 180.842 147.24C180.922 147.152 181.042 147.108 181.202 147.108C181.354 147.108 181.474 147.152 181.562 147.24C181.65 147.328 181.694 147.456 181.694 147.624V152.532C181.694 152.7 181.65 152.832 181.562 152.928C181.482 153.016 181.362 153.06 181.202 153.06ZM181.202 145.764C181.002 145.764 180.846 145.712 180.734 145.608C180.622 145.496 180.566 145.348 180.566 145.164C180.566 144.972 180.622 144.828 180.734 144.732C180.846 144.628 181.002 144.576 181.202 144.576C181.41 144.576 181.566 144.628 181.67 144.732C181.782 144.828 181.838 144.972 181.838 145.164C181.838 145.348 181.782 145.496 181.67 145.608C181.566 145.712 181.41 145.764 181.202 145.764ZM185.971 153.108C185.451 153.108 184.995 152.984 184.603 152.736C184.219 152.488 183.919 152.14 183.703 151.692C183.495 151.236 183.391 150.7 183.391 150.084C183.391 149.46 183.495 148.924 183.703 148.476C183.919 148.02 184.219 147.672 184.603 147.432C184.995 147.184 185.451 147.06 185.971 147.06C186.499 147.06 186.951 147.192 187.327 147.456C187.703 147.72 187.955 148.076 188.083 148.524H187.951V144.948C187.951 144.788 187.991 144.668 188.071 144.588C188.159 144.5 188.283 144.456 188.443 144.456C188.595 144.456 188.711 144.5 188.791 144.588C188.879 144.668 188.923 144.788 188.923 144.948V152.58C188.923 152.74 188.883 152.864 188.803 152.952C188.723 153.04 188.603 153.084 188.443 153.084C188.291 153.084 188.171 153.04 188.083 152.952C188.003 152.864 187.963 152.74 187.963 152.58V151.44L188.095 151.608C187.967 152.064 187.711 152.428 187.327 152.7C186.951 152.972 186.499 153.108 185.971 153.108ZM186.175 152.328C186.535 152.328 186.851 152.24 187.123 152.064C187.395 151.888 187.603 151.632 187.747 151.296C187.899 150.96 187.975 150.556 187.975 150.084C187.975 149.356 187.811 148.8 187.483 148.416C187.163 148.032 186.727 147.84 186.175 147.84C185.807 147.84 185.487 147.928 185.215 148.104C184.951 148.272 184.743 148.524 184.591 148.86C184.447 149.188 184.375 149.596 184.375 150.084C184.375 150.804 184.539 151.36 184.867 151.752C185.195 152.136 185.631 152.328 186.175 152.328ZM193.411 153.108C192.843 153.108 192.351 152.984 191.935 152.736C191.519 152.488 191.195 152.14 190.963 151.692C190.739 151.236 190.627 150.7 190.627 150.084C190.627 149.62 190.691 149.204 190.819 148.836C190.947 148.46 191.135 148.14 191.383 147.876C191.631 147.612 191.923 147.412 192.259 147.276C192.603 147.132 192.987 147.06 193.411 147.06C193.979 147.06 194.471 147.184 194.887 147.432C195.303 147.68 195.623 148.032 195.847 148.488C196.079 148.936 196.195 149.468 196.195 150.084C196.195 150.548 196.131 150.964 196.003 151.332C195.875 151.7 195.687 152.02 195.439 152.292C195.191 152.556 194.895 152.76 194.551 152.904C194.215 153.04 193.835 153.108 193.411 153.108ZM193.411 152.328C193.771 152.328 194.087 152.24 194.359 152.064C194.631 151.888 194.839 151.632 194.983 151.296C195.135 150.96 195.211 150.556 195.211 150.084C195.211 149.356 195.047 148.8 194.719 148.416C194.399 148.032 193.963 147.84 193.411 147.84C193.043 147.84 192.723 147.928 192.451 148.104C192.187 148.272 191.979 148.524 191.827 148.86C191.683 149.188 191.611 149.596 191.611 150.084C191.611 150.804 191.775 151.36 192.103 151.752C192.431 152.136 192.867 152.328 193.411 152.328ZM201.709 153.084C201.549 153.084 201.429 153.04 201.349 152.952C201.269 152.864 201.229 152.74 201.229 152.58V144.948C201.229 144.788 201.269 144.668 201.349 144.588C201.429 144.5 201.549 144.456 201.709 144.456C201.861 144.456 201.981 144.5 202.069 144.588C202.157 144.668 202.201 144.788 202.201 144.948V148.464H202.045C202.213 148 202.485 147.652 202.861 147.42C203.245 147.18 203.685 147.06 204.181 147.06C204.645 147.06 205.029 147.144 205.333 147.312C205.645 147.48 205.877 147.736 206.029 148.08C206.181 148.416 206.257 148.844 206.257 149.364V152.58C206.257 152.74 206.213 152.864 206.125 152.952C206.045 153.04 205.929 153.084 205.777 153.084C205.617 153.084 205.493 153.04 205.405 152.952C205.325 152.864 205.285 152.74 205.285 152.58V149.424C205.285 148.88 205.177 148.484 204.961 148.236C204.753 147.98 204.417 147.852 203.953 147.852C203.417 147.852 202.989 148.02 202.669 148.356C202.357 148.684 202.201 149.124 202.201 149.676V152.58C202.201 152.916 202.037 153.084 201.709 153.084ZM210.125 153.108C209.725 153.108 209.365 153.032 209.045 152.88C208.733 152.72 208.485 152.504 208.301 152.232C208.117 151.96 208.025 151.656 208.025 151.32C208.025 150.888 208.133 150.548 208.349 150.3C208.573 150.052 208.937 149.876 209.441 149.772C209.953 149.668 210.649 149.616 211.529 149.616H212.069V150.252H211.541C210.893 150.252 210.381 150.284 210.005 150.348C209.637 150.404 209.377 150.504 209.225 150.648C209.081 150.792 209.009 150.996 209.009 151.26C209.009 151.588 209.121 151.856 209.345 152.064C209.577 152.272 209.889 152.376 210.281 152.376C210.601 152.376 210.881 152.3 211.121 152.148C211.369 151.996 211.561 151.788 211.697 151.524C211.841 151.26 211.913 150.956 211.913 150.612V149.244C211.913 148.748 211.813 148.392 211.613 148.176C211.413 147.952 211.085 147.84 210.629 147.84C210.349 147.84 210.069 147.876 209.789 147.948C209.509 148.02 209.213 148.136 208.901 148.296C208.789 148.352 208.693 148.372 208.613 148.356C208.533 148.332 208.469 148.288 208.421 148.224C208.373 148.16 208.345 148.088 208.337 148.008C208.329 147.92 208.345 147.836 208.385 147.756C208.433 147.676 208.505 147.612 208.601 147.564C208.953 147.388 209.301 147.26 209.645 147.18C209.989 147.1 210.317 147.06 210.629 147.06C211.133 147.06 211.549 147.144 211.877 147.312C212.205 147.472 212.449 147.72 212.609 148.056C212.769 148.384 212.849 148.808 212.849 149.328V152.58C212.849 152.74 212.809 152.864 212.729 152.952C212.657 153.04 212.549 153.084 212.405 153.084C212.253 153.084 212.137 153.04 212.057 152.952C211.977 152.864 211.937 152.74 211.937 152.58V151.644H212.045C211.981 151.948 211.857 152.208 211.673 152.424C211.497 152.64 211.277 152.808 211.013 152.928C210.749 153.048 210.453 153.108 210.125 153.108ZM216.86 153.108C216.5 153.108 216.136 153.064 215.768 152.976C215.408 152.888 215.072 152.736 214.76 152.52C214.68 152.464 214.624 152.4 214.592 152.328C214.56 152.248 214.548 152.172 214.556 152.1C214.572 152.02 214.604 151.952 214.652 151.896C214.708 151.84 214.772 151.808 214.844 151.8C214.924 151.784 215.012 151.8 215.108 151.848C215.42 152.04 215.72 152.176 216.008 152.256C216.304 152.328 216.596 152.364 216.884 152.364C217.34 152.364 217.684 152.28 217.916 152.112C218.148 151.944 218.264 151.716 218.264 151.428C218.264 151.204 218.188 151.028 218.036 150.9C217.884 150.764 217.644 150.66 217.316 150.588L216.224 150.348C215.72 150.244 215.344 150.064 215.096 149.808C214.856 149.552 214.736 149.22 214.736 148.812C214.736 148.452 214.828 148.144 215.012 147.888C215.204 147.624 215.472 147.42 215.816 147.276C216.16 147.132 216.56 147.06 217.016 147.06C217.368 147.06 217.7 147.108 218.012 147.204C218.332 147.292 218.62 147.436 218.876 147.636C218.956 147.692 219.008 147.76 219.032 147.84C219.064 147.912 219.068 147.988 219.044 148.068C219.028 148.14 218.992 148.204 218.936 148.26C218.88 148.308 218.812 148.336 218.732 148.344C218.652 148.352 218.568 148.328 218.48 148.272C218.24 148.112 217.996 147.996 217.748 147.924C217.5 147.844 217.256 147.804 217.016 147.804C216.568 147.804 216.228 147.892 215.996 148.068C215.764 148.244 215.648 148.476 215.648 148.764C215.648 148.988 215.72 149.172 215.864 149.316C216.008 149.46 216.232 149.564 216.536 149.628L217.628 149.856C218.148 149.968 218.536 150.148 218.792 150.396C219.056 150.636 219.188 150.964 219.188 151.38C219.188 151.908 218.976 152.328 218.552 152.64C218.128 152.952 217.564 153.108 216.86 153.108ZM223.191 153.108C222.735 153.108 222.351 153.028 222.039 152.868C221.735 152.7 221.507 152.46 221.355 152.148C221.203 151.828 221.127 151.44 221.127 150.984V147.924H220.323C220.187 147.924 220.083 147.892 220.011 147.828C219.939 147.756 219.903 147.66 219.903 147.54C219.903 147.42 219.939 147.328 220.011 147.264C220.083 147.2 220.187 147.168 220.323 147.168H221.127V145.788C221.127 145.628 221.171 145.508 221.259 145.428C221.347 145.34 221.467 145.296 221.619 145.296C221.771 145.296 221.887 145.34 221.967 145.428C222.055 145.508 222.099 145.628 222.099 145.788V147.168H223.611C223.747 147.168 223.851 147.2 223.923 147.264C223.995 147.328 224.031 147.42 224.031 147.54C224.031 147.66 223.995 147.756 223.923 147.828C223.851 147.892 223.747 147.924 223.611 147.924H222.099V150.888C222.099 151.344 222.195 151.692 222.387 151.932C222.579 152.164 222.891 152.28 223.323 152.28C223.475 152.28 223.603 152.264 223.707 152.232C223.819 152.2 223.911 152.184 223.983 152.184C224.055 152.176 224.115 152.2 224.163 152.256C224.211 152.312 224.235 152.408 224.235 152.544C224.235 152.64 224.215 152.728 224.175 152.808C224.143 152.888 224.083 152.944 223.995 152.976C223.899 153.008 223.771 153.036 223.611 153.06C223.459 153.092 223.319 153.108 223.191 153.108ZM227.122 153.108C226.722 153.108 226.362 153.032 226.042 152.88C225.73 152.72 225.482 152.504 225.298 152.232C225.114 151.96 225.022 151.656 225.022 151.32C225.022 150.888 225.13 150.548 225.346 150.3C225.57 150.052 225.934 149.876 226.438 149.772C226.95 149.668 227.646 149.616 228.526 149.616H229.066V150.252H228.538C227.89 150.252 227.378 150.284 227.002 150.348C226.634 150.404 226.374 150.504 226.222 150.648C226.078 150.792 226.006 150.996 226.006 151.26C226.006 151.588 226.118 151.856 226.342 152.064C226.574 152.272 226.886 152.376 227.278 152.376C227.598 152.376 227.878 152.3 228.118 152.148C228.366 151.996 228.558 151.788 228.694 151.524C228.838 151.26 228.91 150.956 228.91 150.612V149.244C228.91 148.748 228.81 148.392 228.61 148.176C228.41 147.952 228.082 147.84 227.626 147.84C227.346 147.84 227.066 147.876 226.786 147.948C226.506 148.02 226.21 148.136 225.898 148.296C225.786 148.352 225.69 148.372 225.61 148.356C225.53 148.332 225.466 148.288 225.418 148.224C225.37 148.16 225.342 148.088 225.334 148.008C225.326 147.92 225.342 147.836 225.382 147.756C225.43 147.676 225.502 147.612 225.598 147.564C225.95 147.388 226.298 147.26 226.642 147.18C226.986 147.1 227.314 147.06 227.626 147.06C228.13 147.06 228.546 147.144 228.874 147.312C229.202 147.472 229.446 147.72 229.606 148.056C229.766 148.384 229.846 148.808 229.846 149.328V152.58C229.846 152.74 229.806 152.864 229.726 152.952C229.654 153.04 229.546 153.084 229.402 153.084C229.25 153.084 229.134 153.04 229.054 152.952C228.974 152.864 228.934 152.74 228.934 152.58V151.644H229.042C228.978 151.948 228.854 152.208 228.67 152.424C228.494 152.64 228.274 152.808 228.01 152.928C227.746 153.048 227.45 153.108 227.122 153.108ZM237.851 153.108C237.235 153.108 236.703 152.988 236.255 152.748C235.815 152.5 235.471 152.152 235.223 151.704C234.983 151.256 234.863 150.72 234.863 150.096C234.863 149.488 234.983 148.96 235.223 148.512C235.463 148.056 235.791 147.7 236.207 147.444C236.631 147.188 237.119 147.06 237.671 147.06C238.063 147.06 238.415 147.128 238.727 147.264C239.039 147.392 239.303 147.58 239.519 147.828C239.743 148.076 239.911 148.376 240.023 148.728C240.143 149.08 240.203 149.476 240.203 149.916C240.203 150.044 240.167 150.14 240.095 150.204C240.023 150.26 239.919 150.288 239.783 150.288H235.607V149.652H239.555L239.363 149.808C239.363 149.376 239.299 149.012 239.171 148.716C239.043 148.412 238.855 148.18 238.607 148.02C238.367 147.86 238.063 147.78 237.695 147.78C237.287 147.78 236.939 147.876 236.651 148.068C236.371 148.252 236.159 148.512 236.015 148.848C235.871 149.176 235.799 149.56 235.799 150V150.072C235.799 150.808 235.975 151.368 236.327 151.752C236.687 152.136 237.195 152.328 237.851 152.328C238.123 152.328 238.391 152.292 238.655 152.22C238.927 152.148 239.191 152.028 239.447 151.86C239.559 151.788 239.659 151.756 239.747 151.764C239.843 151.764 239.919 151.792 239.975 151.848C240.031 151.896 240.067 151.96 240.083 152.04C240.107 152.112 240.099 152.192 240.059 152.28C240.027 152.368 239.959 152.444 239.855 152.508C239.591 152.7 239.279 152.848 238.919 152.952C238.559 153.056 238.203 153.108 237.851 153.108ZM243.626 153.108C243.05 153.108 242.61 152.932 242.306 152.58C242.002 152.228 241.85 151.724 241.85 151.068V144.948C241.85 144.788 241.89 144.668 241.97 144.588C242.05 144.5 242.17 144.456 242.33 144.456C242.482 144.456 242.602 144.5 242.69 144.588C242.778 144.668 242.822 144.788 242.822 144.948V150.996C242.822 151.428 242.906 151.752 243.074 151.968C243.25 152.176 243.506 152.28 243.842 152.28C243.914 152.28 243.978 152.276 244.034 152.268C244.09 152.26 244.146 152.256 244.202 152.256C244.29 152.248 244.35 152.268 244.382 152.316C244.422 152.364 244.442 152.46 244.442 152.604C244.442 152.748 244.41 152.856 244.346 152.928C244.282 153 244.178 153.048 244.034 153.072C243.97 153.08 243.902 153.088 243.83 153.096C243.758 153.104 243.69 153.108 243.626 153.108ZM251.663 153.108C250.695 153.108 249.959 152.736 249.455 151.992C248.951 151.248 248.699 150.172 248.699 148.764C248.699 147.82 248.811 147.028 249.035 146.388C249.259 145.74 249.591 145.252 250.031 144.924C250.479 144.596 251.023 144.432 251.663 144.432C252.639 144.432 253.375 144.8 253.871 145.536C254.375 146.264 254.627 147.336 254.627 148.752C254.627 149.696 254.515 150.492 254.291 151.14C254.067 151.788 253.735 152.28 253.295 152.616C252.855 152.944 252.311 153.108 251.663 153.108ZM251.663 152.256C252.335 152.256 252.831 151.972 253.151 151.404C253.479 150.828 253.643 149.944 253.643 148.752C253.643 147.552 253.479 146.676 253.151 146.124C252.831 145.564 252.335 145.284 251.663 145.284C250.999 145.284 250.503 145.564 250.175 146.124C249.847 146.684 249.683 147.56 249.683 148.752C249.683 149.944 249.847 150.828 250.175 151.404C250.503 151.972 250.999 152.256 251.663 152.256ZM259.098 153.108C258.466 153.108 257.922 153.016 257.466 152.832C257.018 152.648 256.674 152.38 256.434 152.028C256.202 151.676 256.086 151.252 256.086 150.756C256.086 150.364 256.166 150.016 256.326 149.712C256.486 149.4 256.71 149.148 256.998 148.956C257.286 148.764 257.618 148.644 257.994 148.596V148.776C257.474 148.664 257.058 148.42 256.746 148.044C256.442 147.66 256.29 147.208 256.29 146.688C256.29 146.208 256.402 145.804 256.626 145.476C256.858 145.14 257.186 144.884 257.61 144.708C258.034 144.524 258.53 144.432 259.098 144.432C259.674 144.432 260.17 144.524 260.586 144.708C261.01 144.884 261.338 145.14 261.57 145.476C261.802 145.804 261.918 146.208 261.918 146.688C261.918 147.032 261.846 147.352 261.702 147.648C261.566 147.936 261.37 148.176 261.114 148.368C260.858 148.56 260.558 148.692 260.214 148.764V148.596C260.782 148.676 261.238 148.912 261.582 149.304C261.934 149.688 262.11 150.172 262.11 150.756C262.11 151.252 261.99 151.676 261.75 152.028C261.518 152.38 261.174 152.648 260.718 152.832C260.27 153.016 259.73 153.108 259.098 153.108ZM259.098 152.292C259.778 152.292 260.29 152.16 260.634 151.896C260.986 151.632 261.162 151.232 261.162 150.696C261.162 150.168 260.986 149.776 260.634 149.52C260.29 149.256 259.778 149.124 259.098 149.124C258.426 149.124 257.914 149.256 257.562 149.52C257.21 149.776 257.034 150.168 257.034 150.696C257.034 151.232 257.21 151.632 257.562 151.896C257.914 152.16 258.426 152.292 259.098 152.292ZM259.098 148.308C259.49 148.308 259.822 148.248 260.094 148.128C260.374 148 260.59 147.82 260.742 147.588C260.894 147.356 260.97 147.084 260.97 146.772C260.97 146.292 260.802 145.92 260.466 145.656C260.138 145.384 259.682 145.248 259.098 145.248C258.514 145.248 258.058 145.384 257.73 145.656C257.402 145.92 257.238 146.292 257.238 146.772C257.238 147.252 257.402 147.628 257.73 147.9C258.058 148.172 258.514 148.308 259.098 148.308ZM263.593 153.408C263.553 153.512 263.497 153.588 263.425 153.636C263.361 153.684 263.285 153.708 263.197 153.708C263.109 153.708 263.029 153.684 262.957 153.636C262.893 153.596 262.845 153.536 262.813 153.456C262.781 153.376 262.781 153.284 262.813 153.18L265.669 144.324C265.709 144.22 265.765 144.144 265.837 144.096C265.909 144.048 265.985 144.024 266.065 144.024C266.153 144.024 266.229 144.048 266.293 144.096C266.365 144.136 266.413 144.196 266.437 144.276C266.469 144.356 266.469 144.448 266.437 144.552L263.593 153.408ZM268.432 153C268.288 153 268.176 152.964 268.096 152.892C268.016 152.812 267.976 152.704 267.976 152.568C267.976 152.432 268.016 152.332 268.096 152.268C268.176 152.196 268.288 152.16 268.432 152.16H269.992V145.356H270.508L268.768 146.508C268.664 146.564 268.564 146.588 268.468 146.58C268.38 146.572 268.304 146.54 268.24 146.484C268.184 146.42 268.144 146.348 268.12 146.268C268.096 146.18 268.1 146.092 268.132 146.004C268.164 145.908 268.232 145.828 268.336 145.764L269.992 144.672C270.096 144.608 270.196 144.556 270.292 144.516C270.388 144.476 270.484 144.456 270.58 144.456C270.692 144.456 270.784 144.492 270.856 144.564C270.936 144.628 270.976 144.732 270.976 144.876V152.16H272.416C272.56 152.16 272.672 152.196 272.752 152.268C272.832 152.332 272.872 152.432 272.872 152.568C272.872 152.712 272.832 152.82 272.752 152.892C272.672 152.964 272.56 153 272.416 153H268.432ZM277.607 153.108C276.639 153.108 275.903 152.736 275.399 151.992C274.895 151.248 274.643 150.172 274.643 148.764C274.643 147.82 274.755 147.028 274.979 146.388C275.203 145.74 275.535 145.252 275.975 144.924C276.423 144.596 276.967 144.432 277.607 144.432C278.583 144.432 279.319 144.8 279.815 145.536C280.319 146.264 280.571 147.336 280.571 148.752C280.571 149.696 280.459 150.492 280.235 151.14C280.011 151.788 279.679 152.28 279.239 152.616C278.799 152.944 278.255 153.108 277.607 153.108ZM277.607 152.256C278.279 152.256 278.775 151.972 279.095 151.404C279.423 150.828 279.587 149.944 279.587 148.752C279.587 147.552 279.423 146.676 279.095 146.124C278.775 145.564 278.279 145.284 277.607 145.284C276.943 145.284 276.447 145.564 276.119 146.124C275.791 146.684 275.627 147.56 275.627 148.752C275.627 149.944 275.791 150.828 276.119 151.404C276.447 151.972 276.943 152.256 277.607 152.256ZM282.102 153.408C282.062 153.512 282.006 153.588 281.934 153.636C281.87 153.684 281.794 153.708 281.706 153.708C281.618 153.708 281.538 153.684 281.466 153.636C281.402 153.596 281.354 153.536 281.322 153.456C281.29 153.376 281.29 153.284 281.322 153.18L284.178 144.324C284.218 144.22 284.274 144.144 284.346 144.096C284.418 144.048 284.494 144.024 284.574 144.024C284.662 144.024 284.738 144.048 284.802 144.096C284.874 144.136 284.922 144.196 284.946 144.276C284.978 144.356 284.978 144.448 284.946 144.552L282.102 153.408ZM286.629 153C286.453 153 286.321 152.96 286.233 152.88C286.153 152.792 286.113 152.676 286.113 152.532C286.113 152.444 286.133 152.36 286.173 152.28C286.221 152.192 286.285 152.104 286.365 152.016L289.053 149.136C289.461 148.696 289.753 148.292 289.929 147.924C290.113 147.548 290.205 147.168 290.205 146.784C290.205 146.304 290.057 145.94 289.761 145.692C289.473 145.436 289.049 145.308 288.489 145.308C288.129 145.308 287.789 145.364 287.469 145.476C287.149 145.588 286.841 145.76 286.545 145.992C286.441 146.072 286.345 146.108 286.257 146.1C286.177 146.092 286.105 146.06 286.041 146.004C285.977 145.948 285.933 145.876 285.909 145.788C285.885 145.7 285.885 145.612 285.909 145.524C285.941 145.436 286.005 145.356 286.101 145.284C286.413 145.028 286.789 144.824 287.229 144.672C287.669 144.512 288.117 144.432 288.573 144.432C289.141 144.432 289.621 144.52 290.013 144.696C290.405 144.872 290.701 145.132 290.901 145.476C291.101 145.812 291.201 146.224 291.201 146.712C291.201 147.048 291.145 147.38 291.033 147.708C290.929 148.028 290.765 148.356 290.541 148.692C290.325 149.028 290.041 149.376 289.689 149.736L287.133 152.436V152.16H291.177C291.329 152.16 291.441 152.196 291.513 152.268C291.593 152.332 291.633 152.432 291.633 152.568C291.633 152.712 291.593 152.82 291.513 152.892C291.441 152.964 291.329 153 291.177 153H286.629ZM296.116 153.108C295.148 153.108 294.412 152.736 293.908 151.992C293.404 151.248 293.152 150.172 293.152 148.764C293.152 147.82 293.264 147.028 293.488 146.388C293.712 145.74 294.044 145.252 294.484 144.924C294.932 144.596 295.476 144.432 296.116 144.432C297.092 144.432 297.828 144.8 298.324 145.536C298.828 146.264 299.08 147.336 299.08 148.752C299.08 149.696 298.968 150.492 298.744 151.14C298.52 151.788 298.188 152.28 297.748 152.616C297.308 152.944 296.764 153.108 296.116 153.108ZM296.116 152.256C296.788 152.256 297.284 151.972 297.604 151.404C297.932 150.828 298.096 149.944 298.096 148.752C298.096 147.552 297.932 146.676 297.604 146.124C297.284 145.564 296.788 145.284 296.116 145.284C295.452 145.284 294.956 145.564 294.628 146.124C294.3 146.684 294.136 147.56 294.136 148.752C294.136 149.944 294.3 150.828 294.628 151.404C294.956 151.972 295.452 152.256 296.116 152.256ZM301.499 153C301.323 153 301.191 152.96 301.103 152.88C301.023 152.792 300.983 152.676 300.983 152.532C300.983 152.444 301.003 152.36 301.043 152.28C301.091 152.192 301.155 152.104 301.235 152.016L303.923 149.136C304.331 148.696 304.623 148.292 304.799 147.924C304.983 147.548 305.075 147.168 305.075 146.784C305.075 146.304 304.927 145.94 304.631 145.692C304.343 145.436 303.919 145.308 303.359 145.308C302.999 145.308 302.659 145.364 302.339 145.476C302.019 145.588 301.711 145.76 301.415 145.992C301.311 146.072 301.215 146.108 301.127 146.1C301.047 146.092 300.975 146.06 300.911 146.004C300.847 145.948 300.803 145.876 300.779 145.788C300.755 145.7 300.755 145.612 300.779 145.524C300.811 145.436 300.875 145.356 300.971 145.284C301.283 145.028 301.659 144.824 302.099 144.672C302.539 144.512 302.987 144.432 303.443 144.432C304.011 144.432 304.491 144.52 304.883 144.696C305.275 144.872 305.571 145.132 305.771 145.476C305.971 145.812 306.071 146.224 306.071 146.712C306.071 147.048 306.015 147.38 305.903 147.708C305.799 148.028 305.635 148.356 305.411 148.692C305.195 149.028 304.911 149.376 304.559 149.736L302.003 152.436V152.16H306.047C306.199 152.16 306.311 152.196 306.383 152.268C306.463 152.332 306.503 152.432 306.503 152.568C306.503 152.712 306.463 152.82 306.383 152.892C306.311 152.964 306.199 153 306.047 153H301.499ZM310.891 153.108C310.427 153.108 309.959 153.04 309.487 152.904C309.023 152.768 308.619 152.568 308.275 152.304C308.171 152.232 308.103 152.152 308.071 152.064C308.039 151.968 308.031 151.88 308.047 151.8C308.071 151.712 308.115 151.64 308.179 151.584C308.243 151.52 308.319 151.484 308.407 151.476C308.503 151.468 308.607 151.5 308.719 151.572C309.071 151.804 309.423 151.972 309.775 152.076C310.127 152.18 310.491 152.232 310.867 152.232C311.275 152.232 311.619 152.172 311.899 152.052C312.179 151.932 312.391 151.756 312.535 151.524C312.679 151.284 312.751 150.992 312.751 150.648C312.751 150.152 312.587 149.776 312.259 149.52C311.931 149.264 311.455 149.136 310.831 149.136H309.979C309.827 149.136 309.711 149.1 309.631 149.028C309.551 148.948 309.511 148.84 309.511 148.704C309.511 148.576 309.551 148.476 309.631 148.404C309.711 148.324 309.827 148.284 309.979 148.284H310.747C311.115 148.284 311.427 148.22 311.683 148.092C311.947 147.964 312.151 147.784 312.295 147.552C312.439 147.312 312.511 147.024 312.511 146.688C312.511 146.24 312.367 145.9 312.079 145.668C311.791 145.428 311.375 145.308 310.831 145.308C310.471 145.308 310.131 145.36 309.811 145.464C309.491 145.568 309.175 145.744 308.863 145.992C308.767 146.064 308.671 146.1 308.575 146.1C308.487 146.092 308.411 146.064 308.347 146.016C308.291 145.96 308.247 145.888 308.215 145.8C308.191 145.712 308.195 145.624 308.227 145.536C308.259 145.44 308.327 145.352 308.431 145.272C308.751 145 309.127 144.792 309.559 144.648C309.991 144.504 310.435 144.432 310.891 144.432C311.435 144.432 311.899 144.52 312.283 144.696C312.675 144.864 312.975 145.112 313.183 145.44C313.391 145.76 313.495 146.148 313.495 146.604C313.495 146.948 313.427 147.264 313.291 147.552C313.163 147.832 312.979 148.072 312.739 148.272C312.507 148.472 312.223 148.616 311.887 148.704V148.572C312.471 148.668 312.923 148.908 313.243 149.292C313.571 149.668 313.735 150.144 313.735 150.72C313.735 151.208 313.619 151.632 313.387 151.992C313.163 152.344 312.839 152.62 312.415 152.82C311.991 153.012 311.483 153.108 310.891 153.108Z" fill="white"/>
<defs>
<filter id="filter0_d_6_1095" x="0" y="0" width="355" height="184" filterUnits="userSpaceOnUse" color-interpolation-filters="sRGB">
<feFlood flood-opacity="0" result="BackgroundImageFix"/>
<feColorMatrix in="SourceAlpha" type="matrix" values="0 0 0 0 0 0 0 0 0 0 0 0 0 0 0 0 0 0 127 0" result="hardAlpha"/>
<feOffset dy="4"/>
<feGaussianBlur stdDeviation="5"/>
<feComposite in2="hardAlpha" operator="out"/>
<feColorMatrix type="matrix" values="0 0 0 0 0.639216 0 0 0 0 0.572549 0 0 0 0 0.682353 0 0 0 0.25 0"/>
<feBlend mode="normal" in2="BackgroundImageFix" result="effect1_dropShadow_6_1095"/>
<feBlend mode="normal" in="SourceGraphic" in2="effect1_dropShadow_6_1095" result="shape"/>
</filter>
<linearGradient id="paint0_linear_6_1095" x1="345" y1="170" x2="72" y2="6" gradientUnits="userSpaceOnUse">
<stop stop-color="#41A9F3"/>
<stop offset="0.848958" stop-color="#72FEAA"/>
</linearGradient>
</defs>
</svg>
