<svg width="170" height="96" viewBox="0 0 170 96" fill="none" xmlns="http://www.w3.org/2000/svg">
<path d="M115.4 70.6498L118.58 81.7298H112.11L115.41 70.6498M112.95 65.2998C112.31 65.9398 111.84 66.7598 111.51 67.7398L104.43 88.6398H110.02L110.68 86.4198H119.98L121.63 92.4598L126.84 90.9198L119.3 67.7298C118.95 66.6698 118.46 65.8398 117.82 65.2298C117.18 64.6198 116.36 64.3198 115.33 64.3198C114.37 64.3198 113.57 64.6398 112.94 65.2898" fill="#0DB14B"/>
<path d="M139.31 57.8202C138.6 57.9902 138.06 58.3402 137.64 58.8902C137.29 59.3702 137.12 59.9202 137.12 60.5602C137.12 60.6602 137.12 60.7602 137.13 60.8602L137.2 61.4102C138.19 66.5602 139.53 73.0802 139.53 73.0802L128.21 62.0602C127.92 61.7702 127.53 61.5602 127.04 61.4002C126.56 61.2502 126.13 61.2302 125.78 61.3202C125.05 61.4902 124.51 61.8402 124.11 62.4002C123.72 62.9602 123.55 63.6202 123.61 64.4202L123.67 64.9002L127.36 84.1702C127.54 85.1102 127.92 85.7702 128.53 86.1902C129.14 86.6202 129.82 86.7402 130.6 86.5702C131.31 86.4102 131.85 86.0602 132.27 85.5002C132.67 84.9602 132.84 84.3002 132.78 83.5302L132.71 82.9802C131.72 77.8902 130.36 71.2202 130.36 71.2202L141.67 82.0702C141.98 82.3602 142.38 82.5802 142.87 82.7302C143.35 82.8802 143.75 82.9102 144.11 82.8102C144.83 82.6502 145.38 82.3002 145.78 81.7302C146.17 81.1702 146.34 80.5102 146.28 79.7202L146.22 79.2302L142.56 60.2102C142.38 59.2802 142 58.6102 141.39 58.1902C140.95 57.8902 140.48 57.7402 139.97 57.7402C139.76 57.7402 139.55 57.7602 139.33 57.8102" fill="#0078B9"/>
<path d="M82.13 63.7298H86.01C86.42 63.7298 86.81 63.8198 87.18 63.9898C87.54 64.1698 87.86 64.4098 88.12 64.7098C88.38 65.0098 88.59 65.3598 88.76 65.7498C88.92 66.1398 89 66.5598 89 67.0198C89 67.8798 88.72 68.6098 88.16 69.2298C87.6 69.8498 86.93 70.1598 86.15 70.1598H82.14V63.7298M76.66 58.3398L76.69 82.9898C76.69 83.3898 76.76 83.7798 76.91 84.1398C77.06 84.5098 77.25 84.8398 77.49 85.1298C77.73 85.4198 78.02 85.6398 78.35 85.8098C78.68 85.9798 79.04 86.0498 79.43 86.0498C80.16 86.0498 80.8 85.7498 81.34 85.1598C81.87 84.5698 82.15 83.8698 82.15 83.0598V74.4698L91.03 87.4798L95.49 84.1498L88.33 74.1698C88.46 74.1498 88.6 74.1198 88.72 74.0998C88.85 74.0698 88.98 74.0398 89.11 73.9898C89.87 73.7598 90.57 73.4498 91.22 73.0598C91.87 72.6698 92.44 72.1898 92.92 71.5998C93.4 71.0198 93.78 70.3498 94.05 69.5998C94.32 68.8398 94.46 67.9698 94.46 66.9898C94.46 65.6598 94.25 64.4898 93.81 63.4898C93.37 62.4898 92.78 61.6498 92.03 60.9698C91.27 60.2898 90.38 59.5898 89.38 59.1698C88.37 58.7498 87.37 58.5098 86.16 58.3998C85.96 58.3798 85.59 58.3498 85.1 58.3398H76.67" fill="#ED1A3B"/>
<path d="M97.83 69.17C97.26 69.79 96.97 70.52 96.97 71.37V92.49C96.97 93.57 96.99 95.72 99.89 95.61L112.69 95.57V90.99H102.76V71.38C102.76 70.53 102.48 69.8 101.92 69.18C101.36 68.56 100.68 68.25 99.88 68.25C99.08 68.25 98.39 68.56 97.82 69.18" fill="#FCAF17"/>
<path d="M154.35 65.39H157.33C158.37 65.39 159.32 65.59 160.15 65.98C160.98 66.38 161.7 66.94 162.29 67.64C162.88 68.34 163.33 69.18 163.64 70.12C163.96 71.07 164.11 72.08 164.11 73.15C164.11 74.24 163.96 75.27 163.67 76.23C163.38 77.18 162.95 78.03 162.38 78.74C161.81 79.46 161.11 80.03 160.3 80.45C159.49 80.87 158.52 81.09 157.44 81.09H154.36C154.36 80.76 154.36 65.73 154.36 65.39M148.99 60.5V83.08C148.99 83.92 149.28 84.62 149.84 85.18C150.39 85.73 151.08 86.01 151.87 86.01H158.04C159.8 86.01 161.41 85.67 162.83 85.02C164.25 84.36 165.48 83.44 166.48 82.29C167.48 81.14 168.26 79.76 168.81 78.2C169.35 76.64 169.63 74.94 169.63 73.13L169.58 71.74C169.55 71.27 169.49 70.81 169.4 70.34C169.09 68.79 168.57 67.39 167.87 66.18C167.17 64.97 166.29 63.93 165.26 63.1C164.22 62.26 163.04 61.62 161.74 61.19C160.41 60.74 158.99 60.52 157.52 60.52H149.01" fill="#ED1A3B"/>
<path d="M19.75 57.5198C19.3 57.5198 18.88 57.6198 18.51 57.7998C18.12 57.9898 17.77 58.2498 17.47 58.5698C17.17 58.8898 16.93 59.2498 16.77 59.6598C16.6 60.0598 16.55 60.4898 16.56 60.9498V75.0298L5.92 60.3298C5.64 59.8898 5.26 59.5198 4.78 59.2298C4.31 58.9398 3.79 58.7998 3.21 58.7998C2.74 58.7998 2.3 58.8998 1.91 59.0898C1.51 59.2798 1.17 59.5298 0.88 59.8498C0.59 60.1698 0.36 60.5398 0.19 60.9498C0.02 61.3498 0 61.7798 0 62.2398V86.4198L6.59 86.3898V71.3498L17.37 86.3698C17.62 86.7498 17.96 87.0398 18.43 87.2498C18.91 87.4698 19.42 87.5898 19.94 87.5798C20.9 87.5798 21.68 87.2598 22.32 86.6098C22.95 85.9698 23.2 85.1998 23.2 84.2698V60.8798C23.2 60.4498 23.05 60.0298 22.88 59.6198C22.69 59.1998 22.45 58.8398 22.15 58.5298C21.85 58.2298 21.49 57.9798 21.07 57.7898C20.67 57.5998 20.24 57.5098 19.79 57.5098" fill="#ED1A3B"/>
<path d="M59.75 88.0602C59.75 88.4302 59.81 88.7902 59.95 89.1402C60.08 89.4902 60.27 89.7902 60.51 90.0502C60.75 90.3002 61.04 90.5102 61.36 90.6702C61.69 90.8402 62.05 90.9202 62.43 90.9202H74.19V86.0502H65.15V80.3502H70.76C71.42 80.3502 71.99 80.1302 72.48 79.6702C72.97 79.2202 73.21 78.6401 73.21 77.9501C73.21 77.2601 72.98 76.7302 72.53 76.3202C72.28 76.0902 72 75.9001 71.7 75.7701C71.4 75.6301 71.06 75.5602 70.7 75.5602H65.16V70.3102H71.38C72.04 70.3102 72.6 70.0702 73.06 69.6002C73.53 69.1202 73.76 68.5501 73.76 67.8801C73.76 67.2101 73.53 66.6302 73.08 66.1602C72.63 65.6902 72.07 65.4501 71.42 65.4501H62.96C62.19 65.4501 61.48 65.4502 60.84 65.4302C60.19 65.4202 59.84 65.4102 59.77 65.4102V88.0802" fill="#0078B9"/>
<path d="M55.06 58.3499C54.57 58.7799 54.21 59.3299 53.99 59.9799L48.08 79.3899L43.35 65.2999H37.39L43.89 84.4799C44.23 85.5099 44.75 86.3799 45.42 87.0599C46.11 87.7599 46.99 88.1199 48.04 88.1199C49.14 88.1199 50.05 87.7799 50.75 87.1199C51.43 86.4799 51.95 85.5899 52.32 84.4699L59.57 62.2799C59.75 61.7799 59.84 61.3399 59.84 60.9199C59.84 60.4799 59.76 60.0499 59.6 59.6599C59.44 59.2599 59.21 58.9099 58.92 58.6199C58.63 58.3299 58.31 58.0999 57.95 57.9399C57.59 57.7699 57.2 57.6899 56.81 57.6899C56.15 57.6899 55.59 57.8999 55.09 58.3299" fill="#0DB14B"/>
<path d="M25.9 70.4099V92.7499C25.9 93.1299 25.96 93.4899 26.1 93.8399C26.24 94.1899 26.43 94.4999 26.67 94.7499C26.91 95.0099 27.2 95.2199 27.54 95.3899C27.87 95.5499 28.24 95.6299 28.63 95.6299H42.34V90.7299H31.41V86.0499H37.17C37.84 86.0499 38.43 85.8199 38.93 85.3699C39.43 84.9099 39.67 84.3299 39.67 83.6299C39.67 82.9299 39.44 82.3999 38.98 81.9799C38.73 81.7499 38.44 81.5599 38.13 81.4199C37.82 81.2799 37.47 81.2099 37.1 81.2099H31.41V75.2999H35.05C35.72 75.2999 36.3 75.0599 36.77 74.5799C37.24 74.0999 37.48 73.5199 37.48 72.8399C37.48 72.1599 37.25 71.5899 36.78 71.0999C36.32 70.6199 35.75 70.3799 35.08 70.3799C35.08 70.3799 25.95 70.3999 25.88 70.3999" fill="#FCAF17"/>
<path d="M76.6199 24.02L76.1699 24.04C76.4399 24.36 76.9799 25.19 77.2899 27.32C77.3499 27.77 77.3999 28.25 77.4499 28.76C77.6799 31.16 77.9199 33.63 80.1399 33.91L80.5199 34C81.3999 34.13 83.9899 34.43 84.9899 34.15C86.1199 33.83 87.6299 32.94 87.3799 29.85C87.1099 26.59 86.5399 25.39 86.5299 25.38V25.36L86.5199 25.34C86.3499 24.84 85.8199 24.81 85.3499 24.83C85.0699 24.85 84.3399 24.87 84.3399 25.3C84.3399 25.46 84.4699 25.61 84.3399 25.75C84.2299 25.86 83.9799 25.83 83.8399 25.84C83.5799 25.86 83.3099 25.86 83.0499 25.86C82.1999 25.87 81.3499 25.88 80.4999 25.88C80.0699 25.88 79.6299 25.88 79.1999 25.86C78.7399 25.84 77.8699 25.84 78.0399 25.13C78.0799 24.75 78.0399 24.41 77.6799 24.21C77.3799 24.05 76.9999 24.02 76.6599 24.02H76.6199Z" fill="#ED1A3B"/>
<path d="M76.62 24.02L76.16 24.04C76.43 24.36 76.97 25.19 77.28 27.32C77.34 27.77 77.39 28.25 77.44 28.76C77.67 31.16 77.91 33.63 80.13 33.91L80.51 34C81.39 34.13 83.98 34.43 84.98 34.15C86.11 33.83 87.62 32.94 87.37 29.85C87.1 26.59 86.53 25.39 86.52 25.38V25.36L86.51 25.34C86.34 24.84 85.81 24.81 85.34 24.83C85.06 24.85 84.33 24.87 84.33 25.3C84.33 25.46 84.46 25.61 84.33 25.75C84.22 25.86 83.97 25.83 83.83 25.84C83.57 25.86 83.3 25.86 83.04 25.86C82.19 25.87 81.34 25.88 80.49 25.88C80.06 25.88 79.62 25.88 79.19 25.86C78.73 25.84 77.86 25.84 78.03 25.13C78.07 24.75 78.03 24.41 77.67 24.21C77.37 24.05 76.99 24.02 76.65 24.02H76.62Z" fill="#ED1A3B"/>
<path d="M98.88 19.5598C99.2 19.3298 99.51 19.2198 99.81 19.2598C100.2 19.3098 100.46 19.5598 100.55 19.6698C100.42 20.2698 99.98 20.6098 99.78 20.7298C99.66 20.5798 99.02 19.7598 98.87 19.5598M97.03 19.6798C97.03 19.6798 97.14 20.1398 96.71 20.3398C97.02 20.9698 98.67 23.1598 99.09 23.4098C99.65 23.0298 100.39 22.5198 100.61 21.9998H100.63V21.9698V21.8598C100.77 21.1998 100.94 20.0698 100.94 19.4398C100.94 19.3198 100.94 19.2298 100.92 19.1498C100.73 18.4798 100.45 17.9698 100.13 17.5698C99.35 18.2298 98 19.2898 97.02 19.6698" fill="#ED1A3B"/>
<path d="M95 15.6598C95 15.6598 95 15.7498 95 15.7998C95.02 16.0298 95.14 16.2298 95.29 16.4498C95.12 16.5298 94.83 16.6798 94.7 16.7498L94.64 16.7898V16.8098L94.62 16.8198C94.98 17.6398 95.51 18.7898 95.85 19.0698C95.85 19.0698 96.03 18.6498 96.54 18.9998C96.87 18.7798 98.51 17.7098 99.53 16.9898C99.22 16.7498 98.89 16.5698 98.61 16.4598C98.38 16.3698 98.15 16.3098 97.93 16.2498L97.85 16.2198C97.34 16.1198 96.85 16.0498 96.35 16.1298C96.35 16.0898 96.36 16.0398 96.39 15.9998C96.51 15.7898 96.57 15.5598 96.57 15.3398C96.57 15.1198 96.51 14.8998 96.39 14.7098C96.21 14.4298 95.99 14.2398 95.75 14.0898C95.29 14.5798 95 15.1398 95 15.6598Z" fill="#ED1A3B"/>
<path d="M94.15 22.5498C94.47 23.1598 95.1 24.1398 96.12 24.9198C97.06 24.6498 97.84 25.5898 98.47 26.3598L98.74 26.6898C99.1 27.1698 99.43 27.4398 99.73 27.4898C100.02 27.5298 100.37 27.3198 100.77 26.8698C100.98 26.6298 101.28 26.6398 101.46 26.6398C101.79 26.6098 102.05 26.4298 102.17 26.1698C102.43 25.5798 102.26 24.8298 102.01 24.3298C101.86 24.0398 101.65 23.7298 101.34 23.3598L101.28 23.2898C101.28 23.2898 101.23 23.1998 101.21 23.1698C100.63 23.6098 99.76 24.2198 99.76 24.2198C99.76 24.2198 99.76 24.4498 99.4 24.6198C99.04 24.7698 98.71 24.4798 98.27 23.9798C98.27 23.9798 96.58 22.1998 95.84 20.8198C95.84 20.8198 94.94 21.3098 94.14 22.5598" fill="#ED1A3B"/>
<path d="M87.74 25.2501C87.76 25.3301 87.78 25.4101 87.78 25.5101C88.05 26.4701 88.2 27.8901 88.36 29.7701C88.37 29.8901 88.37 30.0001 88.38 30.1201C88.68 30.1301 89.32 30.1601 90.14 30.1901C90.42 29.1501 91.36 28.3901 92.49 28.3901C93.62 28.3901 94.59 29.1801 94.85 30.2501C95.61 30.2301 96.33 30.2001 96.96 30.1401C96.56 29.0401 96.04 28.4001 96 28.3501L95.96 28.3001C95.8 28.0501 95.01 26.7701 95.21 25.8401C95.25 25.6501 95.34 25.4801 95.45 25.3401C93.86 24.0301 93.23 22.3301 93.2 22.2401C93.13 22.0501 93.23 21.8401 93.42 21.7701C93.53 21.7301 93.63 21.7501 93.72 21.8001C93.89 21.5001 94.71 20.1301 95.15 19.8301C95.15 19.8301 94.24 18.8701 93.71 17.3301C88.62 20.3301 87.45 23.8801 87.75 25.2501" fill="#ED1A3B"/>
<path d="M78.63 39.7602V39.7102C78.61 40.2102 78.62 41.9702 78.62 41.9702C78.62 41.9702 78.49 43.5802 79.93 44.5802C80.71 45.2002 81.22 45.6902 81.66 46.0302C82.12 46.3102 82.35 45.9702 82.36 45.5902V45.6502C82.38 45.1502 82.37 43.3902 82.37 43.3902C82.37 43.3902 82.5 41.7802 81.06 40.7802C80.28 40.1602 79.78 39.6702 79.33 39.3302C79.21 39.2602 79.11 39.2202 79.02 39.2202C78.77 39.2202 78.64 39.4802 78.64 39.7602" fill="#ED1A3B"/>
<path d="M78.63 17.5801V17.5301C78.61 18.0301 78.62 19.7901 78.62 19.7901C78.62 19.7901 78.49 21.4001 79.93 22.4001C80.71 23.0201 81.22 23.5101 81.66 23.8501C82.12 24.1301 82.35 23.7901 82.36 23.4201V23.4701C82.38 22.9701 82.37 21.2201 82.37 21.2201C82.37 21.2201 82.5 19.6001 81.06 18.6101C80.28 17.9901 79.78 17.5001 79.33 17.1601C79.21 17.0901 79.11 17.0601 79.02 17.0601C78.77 17.0601 78.64 17.3201 78.64 17.6001" fill="#ED1A3B"/>
<path d="M78.63 9.72992V9.67992C78.61 10.1799 78.62 11.9299 78.62 11.9299C78.62 11.9299 78.49 13.5499 79.93 14.5399C80.71 15.1499 81.22 15.6499 81.66 15.9899C82.12 16.2699 82.35 15.9299 82.36 15.5499V15.5999C82.38 15.0999 82.37 13.3399 82.37 13.3399C82.37 13.3399 82.5 11.7299 81.06 10.7299C80.28 10.1199 79.78 9.61992 79.33 9.27992C79.21 9.20992 79.11 9.16992 79.02 9.16992C78.77 9.16992 78.64 9.42992 78.64 9.70992" fill="#ED1A3B"/>
<path d="M78.33 1.06C78.21 1.16 78.1 1.28 78.01 1.43C77.46 2.25 77.36 3.23 77.62 4.1L77.66 4.23C77.7 4.36 77.75 4.48 77.81 4.59C77.85 4.67 77.89 4.76 77.94 4.84C77.98 4.91 78.03 4.98 78.08 5.05C78.17 5.18 78.26 5.29 78.37 5.4L78.44 5.48C79.02 6.06 79.83 6.42 80.71 6.42C80.89 6.42 81.05 6.4 81.2 6.36C82.06 6.23 82.87 5.75 83.38 4.97L83.46 4.85C83.6 4.62 83.78 4.45 83.55 4.36C83.33 4.27 83.2 4.79 82.53 4.93C81.88 5.08 81.18 4.97 80.59 4.58C80.31 4.4 80.09 4.17 79.91 3.91C79.66 3.51 79.5 3.04 79.5 2.53C79.5 1.82 79.8 1.18 80.28 0.72C80.76 0.24 81.26 0.42 81.31 0.19C81.35 0 81.2 0 81 0H80.85C80.85 0 80.76 0 80.71 0C79.77 0 78.92 0.4 78.33 1.06Z" fill="#ED1A3B"/>
<path d="M62.6699 22.3599C61.4699 22.4299 60.2999 23.0499 59.3599 24.1099C58.6999 24.8599 58.3899 26.1899 58.0999 27.4699C57.7399 29.0399 57.3699 30.6599 56.3199 31.4799C55.1999 32.3499 53.7799 31.8499 52.9299 31.5499L52.3899 31.3799C52.3199 31.3799 52.2699 31.4099 52.2299 31.4599C52.1099 31.5999 52.0499 31.9099 52.0499 32.2999C52.0499 32.4899 52.0599 32.6999 52.0899 32.9099C52.2999 34.3499 53.1499 35.3999 54.4899 35.8599C55.5299 36.2099 57.1499 36.3299 58.2799 35.4799C59.3899 34.6499 60.2099 33.4999 60.7099 32.0499C61.0099 31.1999 61.2099 30.2799 61.3399 29.2299L61.3599 29.0699C61.4499 28.2699 61.5499 27.3699 62.2499 26.7599C62.9099 26.1699 63.7699 26.0999 64.6699 26.5599C64.9599 25.7499 65.5199 24.7099 66.6199 24.0799C66.2999 23.8999 65.8199 23.6499 65.4599 23.3399C64.7399 22.6999 63.8399 22.3599 62.8899 22.3599C62.8099 22.3599 62.7399 22.3599 62.6599 22.3599" fill="#ED1A3B"/>
<path d="M59.72 46.3799L59.69 46.4199L59.65 46.4899C59.65 46.4899 59.61 46.5299 59.61 46.6799C59.61 46.9299 59.75 47.5099 60.5 48.7499C60.78 49.2099 61.24 49.2099 61.33 49.1799C61.61 49.0999 61.96 48.9099 62.3 48.6999C61.98 48.0499 61.12 46.2799 60.82 45.6699C60.4 45.8699 59.92 46.1199 59.72 46.3799Z" fill="#ED1A3B"/>
<path d="M64.66 41.3102C64.5 41.4202 64.31 41.5602 64.15 41.6702C63.79 42.1702 63.02 43.9602 62.78 44.7202C62.61 44.9102 62.22 45.0702 61.83 45.2802L63.22 48.1302C63.31 48.0702 63.43 47.9802 63.52 47.9302C64.05 47.6502 64.03 47.5502 64.65 47.1502C65.37 46.6802 65.64 46.6902 65.97 44.7102C66.26 43.0302 67.24 41.2802 67.57 40.7002C67.33 40.7002 67.15 40.7002 67.15 40.7002C67.05 40.7002 66.95 40.7002 66.85 40.7002C66.04 40.7002 65.41 40.7802 64.66 41.2902" fill="#ED1A3B"/>
<path d="M93.1199 43.1998C92.8499 43.7198 92.5399 43.8198 92.0699 43.9698L93.56 47.0498C93.56 47.0498 93.6499 47.0498 93.6899 47.0498C95.3199 46.4498 95.57 44.8098 95.91 43.6098C96.25 42.4298 96.8899 40.8798 97.5099 39.4698C97.3599 39.4298 97.2 39.3798 97.03 39.3498L96.38 39.1998C95.85 39.0798 95.1899 38.9298 94.4699 38.7998C94.2299 40.3598 93.8099 41.8498 93.1199 43.2098" fill="#ED1A3B"/>
<path d="M89.78 45.3101C90.06 46.6201 90.66 47.5101 91.06 47.8101C91.35 47.7601 92.03 47.5301 92.51 47.3501C92.18 46.6701 91.31 44.8701 91.03 44.3101C90.44 44.4801 89.89 44.7501 89.78 45.3101Z" fill="#ED1A3B"/>
<path d="M69.71 31.1C69.71 31.97 70.42 32.68 71.29 32.68C72.16 32.68 72.87 31.97 72.87 31.1C72.87 30.23 72.16 29.52 71.29 29.52C70.42 29.52 69.71 30.23 69.71 31.1Z" fill="#ED1A3B"/>
<path d="M66.5799 25.4501C65.5099 26.6501 65.1899 28.2901 65.1899 29.8201C65.1899 29.8701 65.1899 29.9301 65.1899 29.9801C65.3999 30.0101 66.8799 30.2401 68.9699 30.3501C69.2899 29.3701 70.1999 28.6501 71.2799 28.6501C72.3599 28.6501 73.2599 29.3601 73.5899 30.3201C74.4799 30.2601 75.3999 30.1701 76.3199 30.0201C76.2599 29.5401 76.2099 29.0601 76.1699 28.5801C76.1099 27.9901 76.0599 27.4401 75.9799 26.9101C75.7499 25.3001 75.0899 24.3601 74.7899 23.9801C73.5099 23.7401 72.3899 23.6201 71.3999 23.6201C69.1799 23.6201 67.6499 24.2301 66.5699 25.4501" fill="#ED1A3B"/>
<path d="M54.45 44.0701C54.34 44.5501 54.27 45.0301 54.27 45.4901C54.27 46.0301 54.35 46.5601 54.51 47.0701C54.51 47.0701 54.52 47.1201 54.53 47.1601C54.53 47.1701 54.58 47.3001 54.7 47.3101L55.46 47.2201C55.46 47.2201 55.75 47.1901 55.97 47.1201C55.94 46.4601 55.84 44.4101 55.81 43.6401C55.07 43.7501 54.58 43.9501 54.45 44.0601" fill="#ED1A3B"/>
<path d="M93.66 48.93C93.87 50.1 94.64 51.07 94.89 51.35C95.1 51.4 95.66 51.49 96.3 50.99L96.42 50.91C96.07 50.22 95.09 48.31 94.79 47.71C94.41 47.89 93.89 48.25 93.67 48.94" fill="#ED1A3B"/>
<path d="M65.84 33.9298C65.86 33.9898 65.87 34.0498 65.87 34.0998V34.1998C65.74 34.8598 64.86 35.7198 63.76 35.9398C61.56 36.4998 61.03 37.5298 60.9 38.0898C60.71 38.9598 59.62 41.7198 58.78 42.6498C58.43 43.0998 58.22 43.2998 58.09 43.3898C58.01 43.4498 57.89 43.5198 57.79 43.5198C57.51 43.5198 57.14 43.5698 56.89 43.5998L57.06 46.8598C58.18 46.7998 59.25 45.9898 59.46 45.7998C59.61 45.6698 60.05 44.9998 60.3 44.5998C60.77 44.1298 61.2 43.6198 61.47 43.1098C61.72 42.6398 62.05 42.1998 62.43 41.8098C63.04 41.1998 63.71 40.7098 64.36 40.2698C65.2 39.6998 65.89 39.6598 66.85 39.6798H68.29H68.56C69.34 39.6798 70.15 39.6598 70.91 39.5298C71.72 39.3798 72.42 38.8498 73.09 38.3298L74.26 37.5198C74.37 37.4498 74.46 37.4398 74.6 37.4598C76.48 37.7098 89.12 37.6798 91.78 37.5898C93.66 37.5198 95.45 37.9398 96.64 38.2098L97.29 38.3598C98.33 38.5698 99.01 38.9898 99.32 39.5898C99.6 40.1398 99.55 40.7998 99.18 41.5698L98.65 42.7298C97.98 44.2398 97.28 45.7998 95.73 47.1998L97.33 50.3398L97.81 49.9398C97.87 49.8798 97.95 49.8398 98.04 49.8298C99.01 49.6198 99.58 48.7198 99.88 46.9098C100.18 45.1098 101.51 41.8498 102.11 41.1598C102.66 40.5198 103.87 38.8898 103.16 37.3498C102.55 36.0398 100.66 35.7898 98.84 35.5598L97.66 35.3898C97.51 35.3698 97.38 35.2898 97.3 35.1598C97.22 35.0398 97.19 34.8798 97.23 34.7398C97.54 33.3698 97.48 32.1798 97.28 31.2098C96.58 31.2798 95.75 31.3198 94.89 31.3398C94.67 32.4598 93.68 33.3098 92.5 33.3098C91.32 33.3098 90.3 32.4298 90.1 31.2798C89.33 31.2498 88.72 31.2198 88.4 31.2098C88.21 33.7298 86.81 34.7298 85.38 35.0498C84.21 35.3098 80.79 35.0298 79.78 34.8798L79.33 34.7798C77.53 34.5498 76.84 32.9798 76.5 31.0898C75.57 31.2398 74.65 31.3398 73.75 31.3998C73.62 32.6198 72.59 33.5798 71.33 33.5798C70.07 33.5798 69.07 32.6398 68.92 31.4398C67.15 31.3498 65.81 31.1698 65.27 31.0898C65.43 32.6898 65.84 33.9298 65.85 33.9498" fill="#ED1A3B"/>
<path d="M90.89 30.85C90.89 31.72 91.6 32.43 92.47 32.43C93.34 32.43 94.05 31.72 94.05 30.85C94.05 29.98 93.34 29.27 92.47 29.27C91.6 29.27 90.89 29.98 90.89 30.85Z" fill="#ED1A3B"/>
<path d="M84.41 22.3599C84.41 22.3599 84.43 22.2699 84.44 22.2299C84.43 22.2699 84.42 22.3199 84.41 22.3599Z" fill="#ED1A3B"/>
<path d="M100.98 15.49C100.98 15.49 102.17 15.97 102.64 16.8L102.68 16.89L102.64 16.79C102.17 15.96 100.99 15.48 100.98 15.48" fill="#ED1A3B"/>
<path d="M84.7 21.2301C84.76 21.0401 84.81 20.8401 84.88 20.6401C84.82 20.8401 84.76 21.0301 84.7 21.2301Z" fill="#ED1A3B"/>
<path d="M84.54 21.8001C84.58 21.6401 84.62 21.4801 84.67 21.3301C84.63 21.4901 84.59 21.6501 84.54 21.8001Z" fill="#ED1A3B"/>
<path d="M84.29 22.94C84.3 22.88 84.31 22.81 84.33 22.75C84.32 22.81 84.31 22.88 84.29 22.94ZM84.33 22.75C84.35 22.67 84.37 22.58 84.38 22.5C84.36 22.58 84.34 22.67 84.33 22.75Z" fill="#ED1A3B"/>
<path d="M84.88 20.6399C86.26 16.3499 89.67 11.0199 98.1 13.0799C98.1 13.0799 99.66 12.4199 100.51 13.0599C101.37 13.6999 101.37 14.0399 101.36 14.3499C101.36 14.4699 101.33 14.5999 101.3 14.7299C101.34 14.5999 101.36 14.4599 101.36 14.3399C101.37 14.0299 101.36 13.6899 100.51 13.0499C99.65 12.4199 98.09 13.0699 98.09 13.0699C96.81 12.7499 95.64 12.6099 94.57 12.6099C88.65 12.6099 86.03 16.9999 84.87 20.6399" fill="#ED1A3B"/>
<path d="M84.38 22.4999C84.38 22.4999 84.4 22.3999 84.41 22.3599C84.41 22.3999 84.39 22.4499 84.38 22.4999Z" fill="#ED1A3B"/>
<path d="M84.21 23.3599C84.22 23.2899 84.23 23.2199 84.25 23.1499C84.24 23.2199 84.23 23.2899 84.21 23.3599ZM84.25 23.1499C84.26 23.0799 84.27 23.0099 84.29 22.9399C84.27 23.0099 84.26 23.0899 84.25 23.1499Z" fill="#ED1A3B"/>
<path d="M100.98 15.49C100.98 15.49 101.18 15.1 101.28 14.73C101.17 15.12 100.97 15.49 100.97 15.49" fill="#ED1A3B"/>
<path d="M102.73 17.5301C102.73 17.5301 102.75 17.4501 102.76 17.4101C102.76 17.4501 102.74 17.4901 102.73 17.5301ZM102.76 17.4101C102.76 17.4101 102.76 17.3701 102.76 17.3501C102.76 17.3701 102.76 17.3901 102.76 17.4101Z" fill="#ED1A3B"/>
<path d="M102.77 17.2901C102.77 17.2901 102.77 17.2301 102.77 17.1901C102.77 17.2201 102.77 17.2501 102.77 17.2901ZM102.77 17.1901C102.77 17.1901 102.77 17.1301 102.76 17.1001C102.76 17.1301 102.76 17.1601 102.77 17.1901Z" fill="#ED1A3B"/>
<path d="M84.88 20.6401C84.82 20.8401 84.76 21.0401 84.7 21.2301L84.67 21.3301C84.63 21.4901 84.59 21.6501 84.54 21.8001L84.51 21.9301C84.47 22.0701 84.44 22.2101 84.41 22.3501C84.41 22.3901 84.39 22.4401 84.38 22.4901C84.35 22.6401 84.32 22.7901 84.29 22.9301C84.26 23.0801 84.24 23.2201 84.21 23.3501V23.3801C84.16 23.6501 84.12 23.9001 84.09 24.1201C84.79 23.9301 86 23.9801 86.19 24.0201C86.4 24.0701 86.58 24.1301 86.7 24.2301C87.06 21.9401 89.16 18.3801 94.32 15.7201C94.29 14.9101 94.7 14.0401 95.45 13.3501C95.55 13.2501 95.72 13.2301 95.85 13.2901L96.07 13.4001C96.44 13.6001 96.76 13.9001 97.02 14.3001C97.17 14.5301 97.26 14.7801 97.3 15.0501C97.86 15.0901 98.45 15.2001 99.02 15.4301C100 15.8201 101.27 16.7001 101.89 18.6101C102.23 18.3101 102.59 17.9401 102.72 17.5501V17.5101C102.75 17.4501 102.76 17.3901 102.77 17.3301V17.2701C102.77 17.2101 102.77 17.1501 102.77 17.0801L102.74 16.9801L102.7 16.8701L102.66 16.7801C102.19 15.9401 101 15.4701 101 15.4701C101 15.4701 101.2 15.1001 101.31 14.7101C101.35 14.5801 101.37 14.4501 101.37 14.3301C101.37 14.0201 101.37 13.6801 100.52 13.0401C99.67 12.4101 98.11 13.0601 98.11 13.0601C96.82 12.7401 95.66 12.6001 94.6 12.6001C88.69 12.6001 86.06 16.9901 84.9 20.6201" fill="#ED1A3B"/>
</svg>
