<svg width="171" height="39" viewBox="0 0 171 39" fill="none" xmlns="http://www.w3.org/2000/svg">
<path d="M116.3 13.8802L119.48 24.9802H113L116.3 13.8802ZM113.84 8.52017C113.2 9.16017 112.73 9.98017 112.4 10.9602L105.31 31.8902H110.9L111.56 29.6702H120.88L122.54 35.7202L127.76 34.1802L120.21 10.9602C119.86 9.90017 119.37 9.06017 118.73 8.46017C118.09 7.85017 117.26 7.55017 116.24 7.55017C115.28 7.55017 114.48 7.87017 113.84 8.52017Z" fill="#0DB14B"/>
<path d="M140.23 1.04021C139.52 1.21021 138.97 1.56021 138.56 2.11021C138.21 2.59021 138.04 3.14021 138.04 3.78021C138.04 3.88021 138.04 3.98021 138.05 4.08021L138.12 4.63021C139.11 9.79021 140.45 16.3202 140.45 16.3202L129.11 5.29021C128.82 5.00021 128.43 4.79021 127.94 4.63021C127.46 4.48021 127.03 4.46021 126.68 4.54021C125.95 4.71021 125.4 5.06021 125.01 5.63021C124.62 6.19021 124.45 6.85021 124.51 7.65021L124.57 8.13021L128.27 27.4202C128.45 28.3602 128.83 29.0202 129.44 29.4502C130.05 29.8802 130.73 30.0002 131.51 29.8302C132.22 29.6702 132.77 29.3202 133.18 28.7602C133.58 28.2202 133.75 27.5602 133.69 26.7902L133.62 26.2402C132.63 21.1402 131.27 14.4602 131.27 14.4602L142.59 25.3202C142.9 25.6102 143.3 25.8302 143.79 25.9802C144.27 26.1302 144.67 26.1602 145.03 26.0702C145.75 25.9102 146.31 25.5602 146.7 24.9902C147.09 24.4302 147.26 23.7702 147.2 22.9702L147.14 22.4802L143.47 3.44021C143.29 2.50021 142.91 1.84021 142.3 1.41021C141.86 1.11021 141.39 0.960205 140.88 0.960205C140.67 0.960205 140.46 0.980207 140.24 1.03021" fill="#0078B9"/>
<path d="M82.98 6.96018H86.86C87.27 6.96018 87.66 7.05018 88.03 7.22018C88.39 7.40018 88.71 7.64018 88.97 7.94018C89.23 8.24018 89.44 8.59018 89.61 8.98018C89.77 9.37018 89.85 9.79018 89.85 10.2502C89.85 11.1102 89.57 11.8502 89.01 12.4702C88.45 13.0902 87.78 13.4002 87 13.4002H82.99V6.96018M77.5 1.56018L77.53 26.2402C77.53 26.6502 77.6 27.0302 77.75 27.3902C77.9 27.7602 78.09 28.0902 78.33 28.3802C78.57 28.6702 78.86 28.8902 79.19 29.0602C79.52 29.2302 79.88 29.3002 80.27 29.3002C81 29.3002 81.64 29.0002 82.18 28.4102C82.71 27.8102 82.99 27.1102 82.99 26.3102V17.7102L91.88 30.7402L96.34 27.4102L89.17 17.4102C89.3 17.3902 89.44 17.3602 89.56 17.3402C89.69 17.3102 89.82 17.2802 89.95 17.2302C90.71 17.0002 91.41 16.6902 92.06 16.3002C92.71 15.9102 93.28 15.4302 93.76 14.8402C94.24 14.2602 94.62 13.5902 94.89 12.8302C95.17 12.0702 95.3 11.2002 95.3 10.2102C95.3 8.87018 95.09 7.71018 94.65 6.71018C94.21 5.71018 93.62 4.87018 92.86 4.19018C92.1 3.51018 91.21 2.80018 90.21 2.39018C89.2 1.97018 88.2 1.73018 86.99 1.62018C86.79 1.60018 86.41 1.57018 85.93 1.56018H77.48" fill="#ED1A3B"/>
<path d="M98.7 12.4002C98.12 13.0202 97.84 13.7502 97.84 14.6002V35.7502C97.84 36.8402 97.86 38.9902 100.77 38.8702L113.59 38.8302V34.2402H103.65V14.6002C103.65 13.7502 103.37 13.0202 102.81 12.4002C102.25 11.7802 101.57 11.4702 100.76 11.4702C99.95 11.4702 99.27 11.7802 98.7 12.4002Z" fill="#FCAF17"/>
<path d="M155.3 8.61022H158.28C159.32 8.61022 160.27 8.81021 161.1 9.21021C161.93 9.61021 162.65 10.1702 163.24 10.8702C163.83 11.5702 164.28 12.4102 164.59 13.3502C164.91 14.3002 165.06 15.3102 165.06 16.3802C165.06 17.4702 164.91 18.5102 164.62 19.4702C164.33 20.4202 163.89 21.2702 163.33 21.9902C162.76 22.7102 162.06 23.2802 161.24 23.7002C160.43 24.1202 159.46 24.3402 158.37 24.3402H155.29C155.29 24.0102 155.29 8.96021 155.29 8.62021M149.91 3.73022V26.3402C149.91 27.1802 150.2 27.8802 150.76 28.4402C151.31 29.0002 152 29.2702 152.79 29.2702H158.96C160.72 29.2702 162.33 28.9302 163.75 28.2702C165.18 27.6102 166.4 26.6902 167.4 25.5402C168.4 24.3902 169.19 23.0002 169.73 21.4402C170.27 19.8802 170.55 18.1702 170.55 16.3602L170.5 14.9702C170.47 14.5002 170.41 14.0302 170.32 13.5702C170.01 12.0102 169.49 10.6102 168.79 9.40022C168.09 8.19022 167.21 7.15022 166.18 6.31022C165.14 5.47022 163.96 4.83021 162.66 4.39021C161.33 3.94021 159.9 3.72021 158.43 3.72021H149.91" fill="#ED1A3B"/>
<path d="M20.52 0.740215C20.07 0.740215 19.65 0.840216 19.28 1.02022C18.89 1.21022 18.54 1.47022 18.24 1.79022C17.94 2.11022 17.7 2.47021 17.54 2.88021C17.37 3.28021 17.32 3.71021 17.33 4.17021V18.2702L6.68002 3.55021C6.40002 3.11021 6.02001 2.74022 5.54001 2.44022C5.07001 2.15022 4.55002 2.01022 3.96002 2.01022C3.49002 2.01022 3.05 2.11021 2.66 2.30021C2.26 2.49021 1.91 2.75022 1.63 3.06021C1.34 3.38021 1.11 3.75022 0.940002 4.16022C0.770002 4.56022 0.75 4.99021 0.75 5.46021V29.6702L7.35001 29.6402V14.5802L18.14 29.6202C18.39 30.0002 18.73 30.2902 19.2 30.5002C19.68 30.7202 20.19 30.8402 20.71 30.8302C21.67 30.8302 22.46 30.5102 23.09 29.8502C23.72 29.2102 23.97 28.4402 23.97 27.5102V4.09022C23.97 3.66022 23.82 3.24022 23.65 2.83022C23.46 2.41022 23.22 2.04022 22.92 1.74022C22.62 1.44022 22.26 1.18022 21.84 1.00022C21.44 0.810216 21.01 0.720215 20.56 0.720215" fill="#ED1A3B"/>
<path d="M60.57 31.3102C60.57 31.6802 60.63 32.0402 60.77 32.3902C60.9 32.7402 61.09 33.0402 61.33 33.3002C61.57 33.5602 61.86 33.7602 62.18 33.9202C62.51 34.0902 62.87 34.1702 63.25 34.1702H75.03V29.2902H65.98V23.5902H71.59C72.25 23.5902 72.82 23.3702 73.31 22.9102C73.8 22.4602 74.04 21.8802 74.04 21.1802C74.04 20.4802 73.81 19.9602 73.36 19.5402C73.11 19.3102 72.83 19.1202 72.53 18.9902C72.23 18.8502 71.89 18.7802 71.53 18.7802H65.98V13.5202H72.21C72.87 13.5202 73.43 13.2802 73.9 12.8102C74.37 12.3302 74.6 11.7602 74.6 11.0802C74.6 10.4002 74.37 9.83022 73.92 9.35022C73.47 8.88022 72.91 8.64022 72.26 8.64022H63.79C63.02 8.64022 62.31 8.64022 61.66 8.62022C61.01 8.61022 60.66 8.60022 60.59 8.60022V31.3002" fill="#0078B9"/>
<path d="M55.87 1.57017C55.38 2.00017 55.02 2.55017 54.8 3.20017L48.88 22.6402L44.14 8.53016H38.17L44.68 27.7302C45.02 28.7602 45.54 29.6302 46.21 30.3102C46.9 31.0102 47.79 31.3802 48.83 31.3802C49.94 31.3802 50.85 31.0402 51.54 30.3802C52.22 29.7402 52.74 28.8402 53.11 27.7302L60.36 5.51016C60.54 5.01016 60.63 4.57017 60.63 4.15017C60.63 3.71017 60.55 3.28017 60.39 2.89017C60.23 2.49017 60 2.14017 59.71 1.85017C59.42 1.56017 59.09 1.33017 58.73 1.17017C58.37 1.00017 57.98 0.920166 57.58 0.920166C56.92 0.920166 56.36 1.13017 55.86 1.56017" fill="#0DB14B"/>
<path d="M26.6801 13.6402V36.0102C26.6801 36.3902 26.74 36.7502 26.88 37.1002C27.02 37.4502 27.2101 37.7602 27.4601 38.0102C27.7001 38.2702 27.99 38.4802 28.33 38.6502C28.66 38.8102 29.03 38.8902 29.42 38.8902H43.1501V33.9802H32.2101V29.3002H37.98C38.65 29.3002 39.2401 29.0702 39.7401 28.6202C40.2401 28.1602 40.4901 27.5802 40.4901 26.8802C40.4901 26.1802 40.26 25.6502 39.8 25.2302C39.54 25.0002 39.26 24.8102 38.95 24.6702C38.64 24.5302 38.29 24.4602 37.92 24.4602H32.22V18.5402H35.8701C36.5401 18.5402 37.12 18.3002 37.59 17.8202C38.06 17.3402 38.3 16.7602 38.3 16.0802C38.3 15.4002 38.07 14.8202 37.6 14.3402C37.14 13.8602 36.5701 13.6202 35.9001 13.6202C35.9001 13.6202 26.76 13.6402 26.69 13.6402" fill="#FCAF17"/>
</svg>
