<svg width="98" height="23" viewBox="0 0 98 23" fill="none" xmlns="http://www.w3.org/2000/svg">
<path d="M78.5473 1.90432C78.5473 1.84289 78.5473 1.78146 78.5473 1.72881C78.5473 1.33392 78.6407 1.00046 78.8528 0.719647C79.0819 0.37741 79.4043 0.17558 79.8116 0.0702761C80.2529 -0.0262523 80.6432 0.052724 80.9996 0.298433C81.339 0.561692 81.5681 0.956582 81.6614 1.50943L83.6384 13.1016L83.6809 13.3912C83.7148 13.8738 83.6215 14.2687 83.3924 14.611C83.1633 14.962 82.8493 15.1726 82.4336 15.2691C82.2214 15.3218 81.9923 15.3042 81.7208 15.2165C81.4323 15.1199 81.2117 14.9883 81.0335 14.8128L74.4914 7.74867C74.4914 7.74867 75.1872 12.0398 75.7557 15.1112L75.7897 15.4534C75.8236 15.9185 75.7303 16.3134 75.5096 16.6381C75.2721 16.9803 74.9581 17.1821 74.5508 17.2874C74.1096 17.3927 73.7108 17.3225 73.3629 17.0593C73.0065 16.796 72.7944 16.4011 72.6926 15.8395L70.7155 4.45793L70.6816 4.16834C70.6391 3.6857 70.7325 3.28204 70.9616 2.94858C71.1907 2.60634 71.5046 2.38696 71.9204 2.29043C72.1241 2.23778 72.3701 2.25533 72.6501 2.34308C72.9301 2.43961 73.1592 2.56246 73.3205 2.74674L79.8116 9.67924C79.8116 9.67924 79.1752 5.35301 78.5982 2.24655L78.5643 1.91309L78.5473 1.90432Z" fill="#ED1A3B"/>
<path d="M48.6285 0.631699C48.9085 0.631699 49.1291 0.64925 49.2479 0.666801C49.9522 0.737003 50.5377 0.877407 51.1231 1.13189C51.7086 1.3776 52.2347 1.79881 52.6674 2.21125C53.1087 2.61492 53.4566 3.12389 53.7026 3.72061C53.9657 4.30855 54.093 5.01058 54.093 5.80913C54.093 6.40585 54.0081 6.9236 53.8469 7.37114C53.6942 7.82745 53.4651 8.23989 53.185 8.57335C52.905 8.91559 52.5741 9.21395 52.1923 9.44211C51.8104 9.67904 51.4032 9.86333 50.9704 9.99496C50.8856 10.0213 50.8092 10.0476 50.7328 10.0652C50.6734 10.0827 50.5886 10.1003 50.5122 10.109L54.5766 15.9797L51.9717 17.9805L46.9145 10.2845V15.4269C46.9145 15.9095 46.7533 16.3307 46.4478 16.6817C46.1423 17.0415 45.769 17.217 45.3362 17.217C45.1071 17.217 44.895 17.1644 44.6999 17.0679C44.5047 16.9713 44.335 16.8309 44.1992 16.6554C44.0635 16.4799 43.9447 16.2781 43.8598 16.0587C43.775 15.8481 43.7325 15.6199 43.7325 15.3654L43.7156 0.622925H48.637L48.6285 0.631699ZM50.7753 5.07201C50.6734 4.83507 50.5546 4.63324 50.4019 4.44896C50.2407 4.27345 50.071 4.11549 49.8504 4.01019C49.6382 3.91366 49.4091 3.85224 49.1716 3.85224H46.906V7.7046H49.2479C49.7061 7.7046 50.0879 7.51154 50.4189 7.14298C50.7413 6.77442 50.911 6.33565 50.911 5.82668C50.911 5.54587 50.8686 5.30016 50.7837 5.06323" fill="#ED1A3B"/>
<path d="M55.3744 21.1046V8.03818C55.3744 7.52921 55.5356 7.09045 55.858 6.71311C56.1975 6.34455 56.5878 6.15149 57.046 6.15149C57.5042 6.15149 57.8945 6.34455 58.2169 6.71311C58.5309 7.09045 58.6921 7.52921 58.6921 8.03818V20.192H63.8681V22.9562L57.046 22.9825C55.3914 23.0615 55.3744 21.7628 55.3744 21.1046Z" fill="#ED1A3B"/>
<path d="M97.3167 8.64355C97.2997 8.37151 97.2658 8.0907 97.2064 7.80989C97.0197 6.87093 96.7227 6.04605 96.3154 5.3177C95.9081 4.58935 95.382 3.98386 94.7796 3.47489C94.1687 2.98347 93.4729 2.59735 92.7092 2.3341C91.9201 2.07084 91.0885 1.93921 90.2231 1.93921H85.2168V15.4356C85.2168 15.9271 85.395 16.357 85.7174 16.6817C86.0399 17.0152 86.4387 17.1819 86.9138 17.1819H90.537C91.5637 17.1819 92.5225 16.9801 93.3456 16.5852C94.1941 16.1991 94.9154 15.655 95.4924 14.9618C96.0863 14.2685 96.553 13.4524 96.8754 12.5222C97.1894 11.5833 97.3421 10.5653 97.3421 9.48597L97.3167 8.65232V8.64355ZM93.8632 11.3288C93.6935 11.8992 93.4389 12.4082 93.108 12.8381C92.7771 13.2594 92.3528 13.6016 91.8862 13.8561C91.4025 14.1106 90.834 14.2246 90.1976 14.2246H88.3903C88.3903 14.0316 88.3903 5.04567 88.3903 4.84383H90.1382C90.7491 4.84383 91.3092 4.97546 91.7928 5.20362C92.2765 5.44933 92.7092 5.77402 93.0486 6.20401C93.3965 6.61645 93.6596 7.11664 93.8462 7.67826C94.0329 8.23988 94.1178 8.84538 94.1178 9.48597C94.1178 10.1266 94.0414 10.7584 93.8632 11.3288Z" fill="#ED1A3B"/>
<path d="M34.9249 19.9901C34.7382 19.8936 34.577 19.7707 34.4412 19.6128C34.3055 19.4548 34.1952 19.2705 34.1188 19.0599C34.0424 18.8493 34 18.6387 34 18.4106V4.72107C34 4.72107 34.2461 4.72107 34.6194 4.73862C34.9928 4.73862 35.4001 4.74739 35.8328 4.74739H40.7033C41.0766 4.74739 41.3991 4.87903 41.6536 5.17739C41.9167 5.4582 42.044 5.80921 42.044 6.21287C42.044 6.61654 41.9082 6.96755 41.6452 7.25713C41.3821 7.53794 41.0597 7.6959 40.6778 7.6959H37.1141V10.855H40.296C40.5081 10.855 40.7033 10.8989 40.873 10.9779C41.0512 11.0656 41.2124 11.1709 41.3567 11.3201C41.6197 11.5746 41.747 11.9081 41.747 12.3117C41.747 12.7329 41.6027 13.0752 41.3227 13.3472C41.0342 13.6192 40.7118 13.7596 40.3384 13.7596H37.1225V17.1996H42.307V20.1393H35.5613C35.3407 20.1393 35.1285 20.0954 34.9419 19.9901" fill="#ED1A3B"/>
<path d="M31.3188 0.491459C31.0388 0.745943 30.8352 1.08818 30.7079 1.49184L30.3176 2.87834L29.766 4.90544C29.766 4.90544 27.8993 11.3465 27.3138 13.3824C26.9829 12.3469 24.5985 4.75626 24.5985 4.75626H21.179L24.904 16.4888C25.1077 17.1207 25.4046 17.656 25.7865 18.0684C26.1853 18.4984 26.6944 18.7178 27.2968 18.7178C27.8993 18.7178 28.4593 18.5159 28.8496 18.1123C29.2399 17.7174 29.5454 17.1733 29.7575 16.4888L33.9153 2.91344C34.0171 2.60631 34.068 2.3255 34.068 2.07979C34.068 1.81653 34.0171 1.56205 33.9238 1.31634C33.8304 1.07063 33.7031 0.851246 33.5334 0.67574C33.3637 0.500234 33.1856 0.359829 32.9734 0.254525C32.7698 0.157997 32.5492 0.105347 32.3201 0.105347C31.9382 0.105347 31.6158 0.228198 31.3358 0.500233" fill="#ED1A3B"/>
<path d="M15.5277 22.8421C15.3325 22.7368 15.1628 22.6051 15.027 22.456C14.8913 22.298 14.781 22.1225 14.6961 21.9119C14.6198 21.6925 14.5773 21.4819 14.5773 21.2625V7.76609C14.6198 7.76609 19.8551 7.74854 19.8551 7.74854C20.2454 7.74854 20.5679 7.89772 20.8309 8.1873C21.1024 8.47689 21.2297 8.81912 21.2297 9.23156C21.2297 9.644 21.094 9.98624 20.8224 10.2846C20.5509 10.5742 20.2285 10.7146 19.8381 10.7146H17.7423V14.2861H21.0091C21.2212 14.2861 21.4164 14.33 21.5946 14.409C21.7728 14.4967 21.9425 14.6108 22.0867 14.7512C22.3413 15.0057 22.477 15.3304 22.477 15.7516C22.477 16.1728 22.3413 16.5151 22.0528 16.7959C21.7643 17.0679 21.4334 17.2083 21.043 17.2083H17.7423V20.034H24.0129V23H16.1471C15.9265 23 15.7143 22.9474 15.5192 22.8508" fill="#ED1A3B"/>
<path d="M3.68257 17.1996H0.0254556L0 2.71157C0 2.43076 0.0424259 2.1675 0.135763 1.93057C0.2291 1.67608 0.356378 1.4567 0.517596 1.25487C0.6873 1.07059 0.873974 0.921407 1.10307 0.798553C1.3152 0.684474 1.56976 0.631823 1.8328 0.631823C2.16372 0.631823 2.45222 0.719577 2.72374 0.886308C2.98678 1.05304 3.19891 1.2812 3.36013 1.54446C3.36013 1.56201 8.84156 9.67039 8.84156 9.67039L9.34219 10.4163L9.30825 2.07097C9.30825 1.79894 9.35067 1.53568 9.44401 1.28997C9.53735 1.03549 9.67311 0.816106 9.84281 0.623049C10.004 0.429993 10.2077 0.272037 10.4198 0.166733C10.6319 0.0614293 10.8695 0 11.1156 0C11.3617 0 11.6077 0.052654 11.8453 0.166733C12.0744 0.272037 12.2781 0.421216 12.4478 0.614272C12.6175 0.789779 12.7532 1.00916 12.8635 1.26365C12.9569 1.50936 13.0163 1.76384 13.0163 2.0271L13.0757 15.9886C13.0757 16.5502 12.906 17.0153 12.5581 17.4014C12.2017 17.7963 11.7605 17.9894 11.2174 17.9894C10.9289 17.9894 10.6404 17.9192 10.3689 17.7876C10.1143 17.6559 9.91918 17.4892 9.77493 17.2523C9.77493 17.2435 4.21714 8.93326 4.21714 8.93326L3.70803 8.18737L3.68257 17.1821V17.1996Z" fill="#ED1A3B"/>
<path d="M68.1955 6.08124C68.0003 5.43187 67.7118 4.93168 67.347 4.57189C66.9906 4.19455 66.5069 4.01904 65.9215 4.01904C65.3699 4.01904 64.9032 4.22087 64.5469 4.60699C64.182 4.9931 63.9105 5.48452 63.7238 6.08124L61.017 14.4617L59.5067 18.7001H62.7735L63.2062 17.3663H68.5773L69.5361 21.0168L72.5229 20.0954L68.1955 6.09002V6.08124ZM63.919 14.5319L65.9554 7.8363L67.7882 14.5319H63.919Z" fill="#ED1A3B"/>
</svg>

